<svg width="96" height="20" viewBox="0 0 96 20" fill="none" xmlns="http://www.w3.org/2000/svg">
<path d="M10.2597 0.452826C11.3251 -0.32175 12.5936 0.0170095 13.5646 0.577929C13.5689 0.580375 13.5735 0.582387 13.5778 0.584892L25.2028 7.34276L25.3031 7.40241C26.3365 8.02584 27.2247 8.92592 27.1047 10.1554C27.047 10.7466 26.7583 11.229 26.4323 11.5937C26.1067 11.9579 25.6951 12.2612 25.2671 12.5142L25.2674 12.5144L13.5855 19.4232L13.5857 19.4234C12.6251 19.9917 11.47 20.2345 10.4623 19.7107C9.42495 19.1715 8.99659 18.0612 8.99658 16.9158V3.78232C8.99659 2.47164 9.28232 1.16343 10.2597 0.452826ZM12.9857 1.60382C11.3117 0.630589 10.1747 1.3225 10.1747 3.78232V16.9158C10.1748 18.6834 11.4539 19.3156 12.9857 18.4094L24.6676 11.5004C26.1268 10.6377 26.5994 9.51767 24.6105 8.36145L12.9857 1.60359V1.60382Z" fill="#18C750"/>
<path d="M1.2631 0.452826C2.32847 -0.32175 3.59705 0.0170095 4.56799 0.577929C4.57233 0.580375 4.57691 0.582387 4.58122 0.584892L16.2063 7.34276L16.3065 7.40241C17.3399 8.02584 18.2281 8.92592 18.1081 10.1554C18.0504 10.7466 17.7617 11.229 17.4357 11.5937C17.1102 11.9579 16.6985 12.2612 16.2706 12.5142L16.2708 12.5144L4.58888 19.4232L4.58911 19.4234C3.62852 19.9917 2.47343 20.2345 1.46572 19.7107C0.42837 19.1715 1.14114e-05 18.0612 0 16.9158V3.78232C4.24964e-06 2.47164 0.285736 1.16343 1.2631 0.452826ZM3.98913 1.60382C2.31511 0.630589 1.17816 1.3225 1.17815 3.78232V16.9158C1.17817 18.6834 2.45727 19.3156 3.98913 18.4094L15.671 11.5004C17.1302 10.6377 17.6028 9.51767 15.6139 8.36145L3.98913 1.60359V1.60382Z" fill="#18C750"/>
<path d="M88.8193 2.87623C90.0054 2.87625 91.125 3.12243 92.1777 3.61549C93.2305 4.09525 94.0905 4.76162 94.7568 5.61452L92.3379 7.7942C91.8849 7.20798 91.3583 6.76806 90.7588 6.47487C90.1724 6.18169 89.5256 6.03445 88.8193 6.03444C88.2596 6.03444 87.7395 6.14152 87.2598 6.35475C86.7934 6.55465 86.3803 6.83483 86.0205 7.19459C85.6741 7.55437 85.401 7.98091 85.2012 8.47389C85.0146 8.96693 84.9209 9.50673 84.9209 10.093C84.9209 10.6792 85.0209 11.2254 85.2207 11.7317C85.4206 12.2248 85.7007 12.6584 86.0605 13.0315C86.4337 13.3913 86.8601 13.6777 87.3398 13.8909C87.8329 14.0908 88.3664 14.1907 88.9395 14.1907C89.4858 14.1907 89.9792 14.0979 90.4189 13.9114C90.872 13.7248 91.2583 13.4642 91.5781 13.1311C91.8979 12.798 92.1246 12.4178 92.2578 11.9915H88.4795V9.01295H95.9756V10.013C95.9756 11.0657 95.7963 12.039 95.4365 12.9319C95.0901 13.8113 94.5966 14.584 93.957 15.2503C93.3307 15.9033 92.584 16.41 91.7178 16.7698C90.8516 17.1296 89.905 17.3098 88.8789 17.3098C87.8262 17.3098 86.8466 17.1296 85.9404 16.7698C85.0344 16.3967 84.2349 15.8836 83.542 15.2307C82.8624 14.5645 82.3289 13.798 81.9424 12.9319C81.5693 12.0524 81.3828 11.1058 81.3828 10.093C81.3828 9.08018 81.5692 8.13995 81.9424 7.27369C82.3289 6.39425 82.8552 5.62781 83.5215 4.97487C84.2011 4.30857 84.9942 3.79562 85.9004 3.4358C86.8066 3.06265 87.7798 2.87623 88.8193 2.87623ZM41.6562 2.87623C42.429 2.87625 43.1884 2.98961 43.9346 3.21608C44.6809 3.44264 45.3678 3.7629 45.9941 4.17604C46.6335 4.5757 47.1664 5.05507 47.5928 5.61452L45.2744 7.89381C44.7813 7.26746 44.2283 6.80092 43.6152 6.4944C43.0156 6.1879 42.3625 6.03446 41.6562 6.03444C41.0966 6.03444 40.5702 6.14158 40.0771 6.35475C39.5974 6.55465 39.1772 6.83477 38.8174 7.19459C38.4577 7.55437 38.1774 7.9809 37.9775 8.47389C37.7777 8.96689 37.6777 9.50679 37.6777 10.093C37.6778 10.6658 37.7778 11.1987 37.9775 11.6917C38.1908 12.1714 38.4781 12.5978 38.8379 12.971C39.211 13.3307 39.6437 13.6109 40.1367 13.8108C40.6431 14.0107 41.19 14.1106 41.7764 14.1106C42.4559 14.1106 43.0823 13.9643 43.6553 13.6712C44.2416 13.378 44.768 12.9444 45.2344 12.3714L47.4932 14.5911C47.0668 15.1373 46.5402 15.6165 45.9141 16.0296C45.2877 16.4294 44.608 16.7434 43.875 16.97C43.1421 17.1832 42.4025 17.2893 41.6562 17.2893C40.5901 17.2893 39.5973 17.1091 38.6777 16.7493C37.7715 16.3761 36.9785 15.8632 36.2988 15.2102C35.6192 14.5573 35.0857 13.798 34.6992 12.9319C34.3261 12.0524 34.1397 11.1058 34.1396 10.093C34.1396 9.06688 34.3261 8.1204 34.6992 7.25416C35.0857 6.37458 35.6192 5.60836 36.2988 4.95534C36.9918 4.30237 37.7911 3.79562 38.6973 3.4358C39.6168 3.06265 40.6034 2.87623 41.6562 2.87623ZM52.3877 17.0891H48.9492V3.09596H52.3877V17.0891ZM66.502 6.13502H61.9248V17.0891H58.4863V6.13502H53.9082V3.09596H66.502V6.13502ZM75.1787 3.09596C76.1382 3.09598 76.991 3.28958 77.7373 3.67604C78.4836 4.04919 79.0634 4.57548 79.4766 5.25514C79.903 5.92147 80.1162 6.68775 80.1162 7.55397C80.1162 8.43355 79.8763 9.22034 79.3965 9.91334C78.9167 10.6062 78.2832 11.1327 77.4971 11.4924L80.5557 17.0891H76.7178L74.0791 11.9915H71.46V17.0891H68.0215V3.09596H75.1787ZM71.46 9.19362H74.8584C75.3914 9.19362 75.8179 9.04632 76.1377 8.75319C76.4709 8.45999 76.6377 8.07998 76.6377 7.61354C76.6376 7.14729 76.4708 6.76797 76.1377 6.47487C75.8179 6.1817 75.3915 6.03444 74.8584 6.03444H71.46V9.19362Z" fill="#F7F7F7"/>
<path d="M88.8193 2.87623C90.0054 2.87625 91.125 3.12243 92.1777 3.61549C93.2305 4.09525 94.0905 4.76162 94.7568 5.61452L92.3379 7.7942C91.8849 7.20798 91.3583 6.76806 90.7588 6.47487C90.1724 6.18169 89.5256 6.03445 88.8193 6.03444C88.2596 6.03444 87.7395 6.14152 87.2598 6.35475C86.7934 6.55465 86.3803 6.83483 86.0205 7.19459C85.6741 7.55437 85.401 7.98091 85.2012 8.47389C85.0146 8.96693 84.9209 9.50673 84.9209 10.093C84.9209 10.6792 85.0209 11.2254 85.2207 11.7317C85.4206 12.2248 85.7007 12.6584 86.0605 13.0315C86.4337 13.3913 86.8601 13.6777 87.3398 13.8909C87.8329 14.0908 88.3664 14.1907 88.9395 14.1907C89.4858 14.1907 89.9792 14.0979 90.4189 13.9114C90.872 13.7248 91.2583 13.4642 91.5781 13.1311C91.8979 12.798 92.1246 12.4178 92.2578 11.9915H88.4795V9.01295H95.9756V10.013C95.9756 11.0657 95.7963 12.039 95.4365 12.9319C95.0901 13.8113 94.5966 14.584 93.957 15.2503C93.3307 15.9033 92.584 16.41 91.7178 16.7698C90.8516 17.1296 89.905 17.3098 88.8789 17.3098C87.8262 17.3098 86.8466 17.1296 85.9404 16.7698C85.0344 16.3967 84.2349 15.8836 83.542 15.2307C82.8624 14.5645 82.3289 13.798 81.9424 12.9319C81.5693 12.0524 81.3828 11.1058 81.3828 10.093C81.3828 9.08018 81.5692 8.13995 81.9424 7.27369C82.3289 6.39425 82.8552 5.62781 83.5215 4.97487C84.2011 4.30857 84.9942 3.79562 85.9004 3.4358C86.8066 3.06265 87.7798 2.87623 88.8193 2.87623ZM41.6562 2.87623C42.429 2.87625 43.1884 2.98961 43.9346 3.21608C44.6809 3.44264 45.3678 3.7629 45.9941 4.17604C46.6335 4.5757 47.1664 5.05507 47.5928 5.61452L45.2744 7.89381C44.7813 7.26746 44.2283 6.80092 43.6152 6.4944C43.0156 6.1879 42.3625 6.03446 41.6562 6.03444C41.0966 6.03444 40.5702 6.14158 40.0771 6.35475C39.5974 6.55465 39.1772 6.83477 38.8174 7.19459C38.4577 7.55437 38.1774 7.9809 37.9775 8.47389C37.7777 8.96689 37.6777 9.50679 37.6777 10.093C37.6778 10.6658 37.7778 11.1987 37.9775 11.6917C38.1908 12.1714 38.4781 12.5978 38.8379 12.971C39.211 13.3307 39.6437 13.6109 40.1367 13.8108C40.6431 14.0107 41.19 14.1106 41.7764 14.1106C42.4559 14.1106 43.0823 13.9643 43.6553 13.6712C44.2416 13.378 44.768 12.9444 45.2344 12.3714L47.4932 14.5911C47.0668 15.1373 46.5402 15.6165 45.9141 16.0296C45.2877 16.4294 44.608 16.7434 43.875 16.97C43.1421 17.1832 42.4025 17.2893 41.6562 17.2893C40.5901 17.2893 39.5973 17.1091 38.6777 16.7493C37.7715 16.3761 36.9785 15.8632 36.2988 15.2102C35.6192 14.5573 35.0857 13.798 34.6992 12.9319C34.3261 12.0524 34.1397 11.1058 34.1396 10.093C34.1396 9.06688 34.3261 8.1204 34.6992 7.25416C35.0857 6.37458 35.6192 5.60836 36.2988 4.95534C36.9918 4.30237 37.7911 3.79562 38.6973 3.4358C39.6168 3.06265 40.6034 2.87623 41.6562 2.87623ZM52.3877 17.0891H48.9492V3.09596H52.3877V17.0891ZM66.502 6.13502H61.9248V17.0891H58.4863V6.13502H53.9082V3.09596H66.502V6.13502ZM75.1787 3.09596C76.1382 3.09598 76.991 3.28958 77.7373 3.67604C78.4836 4.04919 79.0634 4.57548 79.4766 5.25514C79.903 5.92147 80.1162 6.68775 80.1162 7.55397C80.1162 8.43355 79.8763 9.22034 79.3965 9.91334C78.9167 10.6062 78.2832 11.1327 77.4971 11.4924L80.5557 17.0891H76.7178L74.0791 11.9915H71.46V17.0891H68.0215V3.09596H75.1787ZM71.46 9.19362H74.8584C75.3914 9.19362 75.8179 9.04632 76.1377 8.75319C76.4709 8.45999 76.6377 8.07998 76.6377 7.61354C76.6376 7.14729 76.4708 6.76797 76.1377 6.47487C75.8179 6.1817 75.3915 6.03444 74.8584 6.03444H71.46V9.19362Z" stroke="#F7F7F7"/>
</svg>
