<svg xmlns="http://www.w3.org/2000/svg" xmlns:xlink="http://www.w3.org/1999/xlink" width="2000" zoomAndPan="magnify" viewBox="0 0 1500 1499.999933" height="2000" preserveAspectRatio="xMidYMid meet" version="1.0"><defs><clipPath id="e2dd0656b2"><path d="M 148 204 L 1363 204 L 1363 1425.8125 L 148 1425.8125 Z M 148 204 " clip-rule="nonzero"/></clipPath><clipPath id="297e6b1846"><path d="M 1377 581 L 1438.402344 581 L 1438.402344 609 L 1377 609 Z M 1377 581 " clip-rule="nonzero"/></clipPath><clipPath id="84c725696f"><path d="M 685 74.3125 L 745 74.3125 L 745 185 L 685 185 Z M 685 74.3125 " clip-rule="nonzero"/></clipPath><clipPath id="b3ef83730c"><path d="M 61.402344 658 L 124 658 L 124 715 L 61.402344 715 Z M 61.402344 658 " clip-rule="nonzero"/></clipPath></defs><g clip-path="url(#e2dd0656b2)"><path fill="#3e5026" d="M 1072.214844 686.539062 C 1116.734375 711.878906 1164.082031 721.496094 1215.605469 708.003906 C 1240.441406 701.496094 1261.535156 684.9375 1273.671875 662.316406 C 1295.53125 621.546875 1322.824219 596.492188 1362.203125 606.394531 C 1325.558594 587.890625 1297.003906 611.523438 1271.652344 651.855469 C 1258.074219 673.453125 1236.253906 688.71875 1211.207031 693.632812 C 1173.9375 700.941406 1140.515625 693.492188 1109.65625 676.246094 C 1142.1875 671.21875 1173.292969 662.769531 1199.511719 642.632812 C 1211.425781 637.703125 1220.234375 630.214844 1222.882812 617.632812 C 1224.246094 611.152344 1227.902344 605.367188 1233.289062 601.503906 C 1260.617188 581.898438 1267.507812 553.757812 1252.265625 516.367188 C 1269.96875 596.351562 1221.125 587.675781 1219.589844 602.476562 C 1217.945312 618.394531 1208.785156 624.945312 1208.785156 624.945312 C 1208.480469 594.117188 1201.058594 561.058594 1191.398438 527.308594 C 1194.144531 543.039062 1199.1875 607.746094 1198.828125 621.121094 C 1198.40625 636.730469 1149.816406 668.601562 1088.554688 667.835938 C 941.511719 657.621094 873.832031 703.191406 828.9375 744.414062 C 837.71875 669.703125 866.292969 619.667969 923.902344 605.800781 C 1011.460938 586.140625 1059.96875 537.644531 1059.96875 537.644531 C 1083.875 530.144531 1103.953125 519.21875 1114.082031 499.351562 C 1176.566406 468.105469 1204.742188 427.988281 1172.28125 372.226562 C 1198.320312 467.191406 1124.292969 466.679688 1110 488.121094 C 1095.707031 509.5625 1076.8125 516.371094 1076.8125 516.371094 C 1110.988281 461.359375 1117.132812 409.507812 1093.664062 360.996094 C 1107.09375 430.859375 1090.964844 473.691406 1066.089844 508.539062 C 1046.660156 453.082031 1036.882812 406.289062 1049.238281 379.371094 C 1018.605469 422.261719 1058.425781 480.972656 1049.238281 525.582031 C 1044.132812 554.371094 918.03125 584.441406 918.03125 584.441406 C 918.03125 568.445312 901.695312 516.367188 901.695312 516.367188 C 892.207031 451.898438 925.972656 412.820312 987.300781 389.921875 C 990.074219 388.894531 992.652344 387.378906 994.894531 385.453125 C 1023.179688 361.171875 1018.914062 328.261719 989.757812 288.753906 C 1008.507812 326.570312 1010.136719 353.988281 995.660156 371.648438 C 992.6875 375.277344 988.652344 377.890625 984.203125 379.394531 C 953.164062 389.929688 929.699219 405.109375 912.761719 422.363281 C 912.636719 421.835938 912.496094 421.304688 912.375 420.773438 C 911.347656 416.171875 910.527344 411.527344 909.992188 406.84375 C 908.894531 397.484375 908.996094 388.003906 910.195312 378.574219 C 911.375 369.140625 913.707031 359.78125 916.660156 350.484375 C 919.589844 341.183594 923.175781 331.941406 926.3125 322.359375 C 927.863281 317.566406 929.324219 312.6875 930.367188 307.652344 C 931.417969 302.628906 932.109375 297.464844 932.066406 292.25 C 932.082031 287.046875 931.3125 281.820312 929.871094 276.851562 C 928.449219 271.863281 926.246094 267.167969 923.65625 262.789062 C 921.046875 258.40625 918.003906 254.347656 914.726562 250.542969 C 911.433594 246.726562 907.914062 243.164062 904.214844 239.808594 C 900.523438 236.433594 896.714844 233.226562 892.773438 230.1875 C 888.867188 227.109375 884.816406 224.226562 880.757812 221.371094 C 884.632812 224.472656 888.484375 227.597656 892.171875 230.910156 C 895.902344 234.179688 899.480469 237.59375 902.90625 241.148438 C 906.347656 244.683594 909.585938 248.40625 912.550781 252.300781 C 915.511719 256.199219 918.183594 260.296875 920.390625 264.597656 C 922.585938 268.894531 924.355469 273.394531 925.367188 278.027344 C 926.394531 282.664062 926.796875 287.402344 926.488281 292.113281 C 925.949219 301.570312 922.886719 310.785156 919.308594 319.851562 C 915.691406 328.933594 911.523438 337.984375 907.875 347.414062 C 904.226562 356.832031 901.09375 366.648438 899.164062 376.824219 C 897.21875 386.992188 896.441406 397.484375 897 407.90625 C 897.273438 413.117188 897.847656 418.308594 898.667969 423.457031 C 899.355469 427.589844 900.226562 431.675781 901.214844 435.738281 C 877.046875 467.652344 872.234375 503.988281 881.007812 530.769531 C 890.511719 559.765625 891.765625 580.785156 891.335938 592.5625 C 834.335938 620.054688 793.871094 673.261719 768.902344 750.558594 C 752.8125 682.511719 731.871094 625.300781 703.101562 585.617188 C 702.378906 582.871094 701.789062 580.117188 701.371094 577.351562 C 700.167969 569.492188 700.316406 561.558594 702.507812 554.105469 C 704.660156 546.648438 708.808594 539.726562 714.230469 533.5625 C 719.628906 527.363281 726.078125 521.828125 732.71875 516.355469 C 739.359375 510.878906 746.246094 505.441406 752.554688 499.210938 C 755.699219 496.089844 758.671875 492.738281 761.300781 489.09375 C 763.917969 485.464844 766.167969 481.511719 767.765625 477.304688 C 769.371094 473.105469 770.363281 468.691406 770.710938 464.253906 C 771.0625 459.816406 770.777344 455.382812 770.0625 451.054688 C 769.339844 446.722656 768.199219 442.503906 766.804688 438.390625 C 765.410156 434.269531 763.671875 430.289062 761.855469 426.363281 C 763.398438 430.402344 764.859375 434.476562 765.957031 438.644531 C 767.054688 442.804688 767.898438 447.03125 768.308594 451.277344 C 768.714844 455.523438 768.683594 459.796875 768.066406 463.957031 C 767.460938 468.117188 766.25 472.15625 764.503906 475.925781 C 762.769531 479.703125 760.453125 483.191406 757.785156 486.394531 C 755.125 489.597656 752.128906 492.546875 748.9375 495.308594 C 742.535156 500.828125 735.46875 505.683594 728.402344 510.738281 C 721.339844 515.792969 714.203125 521.074219 707.757812 527.515625 C 704.539062 530.730469 701.515625 534.25 698.90625 538.140625 C 696.277344 542.023438 694.066406 546.269531 692.421875 550.75 C 690.773438 555.238281 689.707031 559.933594 689.1875 564.65625 C 689.050781 565.824219 688.960938 566.988281 688.890625 568.160156 C 679.464844 557.925781 669.285156 549.375 658.285156 542.6875 C 665.855469 533.972656 672.804688 524.550781 678.671875 514.257812 C 679.234375 513.324219 679.71875 512.339844 680.246094 511.382812 C 680.753906 510.414062 681.292969 509.46875 681.769531 508.480469 C 682.726562 506.5 683.726562 504.554688 684.585938 502.523438 C 686.398438 498.523438 687.914062 494.335938 689.273438 490.109375 C 690.585938 485.859375 691.644531 481.511719 692.4375 477.113281 C 693.171875 472.695312 693.707031 468.238281 693.832031 463.753906 C 694.132812 454.800781 693.15625 445.839844 691 437.300781 L 690.613281 435.695312 L 690.152344 434.113281 C 689.84375 433.058594 689.558594 432 689.21875 430.96875 C 688.515625 428.894531 687.847656 426.820312 687.035156 424.808594 C 685.496094 420.742188 683.660156 416.839844 681.714844 413.027344 L 680.207031 410.199219 L 679.847656 409.515625 L 679.574219 408.980469 L 679.027344 407.902344 L 678.457031 406.832031 L 678.007812 405.703125 L 677.546875 404.585938 C 677.382812 404.210938 677.226562 403.839844 677.125 403.449219 L 676.398438 401.125 L 675.867188 398.734375 C 675.648438 397.945312 675.617188 397.128906 675.488281 396.316406 L 675.324219 395.097656 C 675.289062 394.6875 675.28125 394.277344 675.265625 393.867188 L 675.207031 392.636719 L 675.171875 392.011719 C 675.167969 391.804688 675.183594 391.605469 675.1875 391.394531 L 675.277344 388.914062 L 675.578125 386.4375 L 675.648438 385.816406 L 675.773438 385.207031 L 676.027344 383.984375 L 676.277344 382.753906 L 676.636719 381.546875 C 676.890625 380.753906 677.058594 379.917969 677.390625 379.152344 L 678.300781 376.796875 L 679.402344 374.519531 C 680.976562 371.527344 682.921875 368.71875 685.195312 366.148438 L 687.011719 364.332031 L 687.464844 363.871094 C 687.613281 363.71875 687.824219 363.53125 688.007812 363.355469 L 689.121094 362.320312 C 690.609375 360.929688 692.105469 359.554688 693.566406 358.125 C 699.429688 352.476562 705.074219 346.578125 710.394531 340.367188 C 715.707031 334.164062 720.691406 327.652344 725.183594 320.796875 C 725.261719 320.675781 725.34375 320.546875 725.429688 320.417969 C 736.121094 319.714844 746.628906 317.890625 756.839844 315.238281 C 768.125 312.308594 779.050781 308.394531 789.632812 303.835938 C 800.226562 299.277344 810.472656 294.070312 820.449219 288.441406 C 830.421875 282.8125 840.125 276.75 849.613281 270.398438 C 839.660156 275.988281 829.542969 281.269531 819.234375 286.078125 C 808.925781 290.890625 798.421875 295.222656 787.726562 298.878906 C 777.03125 302.53125 766.136719 305.488281 755.128906 307.449219 C 747.320312 308.835938 739.449219 309.710938 731.621094 309.976562 C 733.519531 306.460938 735.277344 302.863281 736.863281 299.203125 C 743.472656 284.195312 746.84375 267.820312 746.695312 251.628906 C 746.648438 243.53125 745.71875 235.484375 744.09375 227.617188 C 742.472656 219.753906 740.175781 212.070312 737.371094 204.597656 C 741.875 219.878906 744.296875 235.828125 743.242188 251.53125 C 742.242188 267.226562 737.878906 282.511719 730.617188 296.234375 C 728.132812 300.988281 725.351562 305.570312 722.3125 309.984375 C 722.222656 309.984375 722.132812 309.984375 722.039062 309.980469 L 722.039062 310.390625 C 720.773438 312.230469 719.460938 314.046875 718.109375 315.832031 C 713.394531 322.003906 708.234375 327.832031 702.753906 333.367188 C 697.277344 338.894531 691.476562 344.128906 685.476562 349.128906 C 683.988281 350.394531 682.453125 351.613281 680.933594 352.835938 L 679.785156 353.75 C 679.589844 353.914062 679.417969 354.042969 679.199219 354.230469 L 678.554688 354.78125 L 675.980469 357.023438 C 672.703125 360.1875 669.792969 363.757812 667.378906 367.667969 L 665.652344 370.660156 C 665.136719 371.6875 664.65625 372.734375 664.171875 373.78125 C 663.644531 374.820312 663.300781 375.917969 662.878906 377 L 662.28125 378.628906 C 662.109375 379.179688 661.957031 379.742188 661.796875 380.296875 L 661.324219 381.972656 L 661.09375 382.816406 L 660.917969 383.667969 L 660.25 387.101562 L 659.863281 390.582031 C 659.84375 390.875 659.796875 391.160156 659.777344 391.449219 L 659.742188 392.332031 L 659.695312 394.085938 C 659.683594 394.667969 659.65625 395.261719 659.660156 395.84375 L 659.753906 397.605469 C 659.84375 398.773438 659.847656 399.953125 660.050781 401.117188 C 660.214844 402.285156 660.367188 403.453125 660.5625 404.617188 L 661.363281 408.078125 C 661.480469 408.65625 661.660156 409.222656 661.84375 409.78125 L 662.390625 411.476562 L 662.953125 413.164062 L 663.636719 414.808594 L 664.335938 416.449219 L 664.972656 417.929688 L 666.101562 420.46875 C 667.539062 423.871094 668.859375 427.304688 669.886719 430.792969 C 670.457031 432.523438 670.859375 434.285156 671.332031 436.027344 C 671.539062 436.90625 671.707031 437.789062 671.90625 438.667969 L 672.183594 439.984375 L 672.402344 441.308594 C 673.636719 448.351562 673.867188 455.4375 673.128906 462.398438 C 672.773438 465.882812 672.085938 469.324219 671.28125 472.722656 C 670.402344 476.117188 669.320312 479.46875 668.039062 482.753906 C 666.703125 486.03125 665.273438 489.273438 663.546875 492.417969 C 662.75 494.007812 661.792969 495.542969 660.90625 497.09375 C 660.464844 497.875 659.953125 498.625 659.476562 499.386719 C 658.984375 500.144531 658.535156 500.921875 658.003906 501.664062 C 651.90625 510.753906 644.539062 519.179688 636.398438 527.015625 C 635.042969 525.84375 633.710938 524.664062 632.410156 523.449219 C 620.953125 512.941406 610.996094 501.03125 604.027344 487.632812 C 600.539062 480.945312 597.839844 473.886719 596.007812 466.5625 C 594.171875 459.246094 593.234375 451.660156 593.113281 443.964844 C 592.867188 428.546875 595.976562 412.808594 600.6875 397.351562 C 605.386719 381.859375 611.667969 366.605469 617.730469 351.046875 C 620.746094 343.261719 623.726562 335.390625 626.210938 327.257812 C 627.464844 323.191406 628.578125 319.058594 629.457031 314.851562 C 630.351562 310.640625 630.984375 306.328125 631.230469 301.960938 C 631.464844 297.601562 631.285156 293.152344 630.453125 288.777344 C 629.621094 284.410156 628.152344 280.136719 625.992188 276.261719 C 623.867188 272.359375 621.089844 268.894531 617.988281 265.871094 C 614.859375 262.867188 611.425781 260.253906 607.816406 258.019531 C 600.574219 253.542969 592.773438 250.3125 584.859375 247.660156 C 576.917969 245.054688 568.839844 243.046875 560.707031 241.363281 C 568.703125 243.601562 576.613281 246.15625 584.257812 249.285156 C 591.886719 252.425781 599.300781 256.144531 605.886719 260.886719 C 609.175781 263.261719 612.210938 265.925781 614.882812 268.875 C 617.515625 271.835938 619.761719 275.085938 621.375 278.613281 C 623.015625 282.121094 624.019531 285.882812 624.472656 289.714844 C 624.921875 293.546875 624.824219 297.464844 624.335938 301.359375 C 623.335938 309.171875 620.933594 316.886719 618.03125 324.449219 C 615.121094 332.023438 611.699219 339.488281 608.1875 346.964844 C 601.136719 361.910156 593.667969 376.933594 587.597656 392.871094 C 584.558594 400.835938 581.871094 409.027344 579.804688 417.484375 C 577.738281 425.9375 576.3125 434.671875 575.824219 443.574219 C 575.332031 452.480469 575.800781 461.546875 577.394531 470.472656 C 578.972656 479.398438 581.640625 488.175781 585.253906 496.492188 C 588.882812 504.800781 593.359375 512.703125 598.496094 520.039062 C 601.046875 523.710938 603.742188 527.285156 606.578125 530.707031 C 607.96875 532.445312 609.445312 534.089844 610.890625 535.78125 C 612.378906 537.414062 613.847656 539.082031 615.382812 540.660156 C 618.402344 543.890625 621.566406 546.953125 624.742188 549.976562 C 627.964844 552.949219 631.21875 555.882812 634.570312 558.675781 C 640.789062 563.917969 647.222656 568.851562 653.773438 573.542969 C 654.113281 573.925781 654.449219 574.324219 654.785156 574.707031 C 647.199219 574.457031 639.628906 574.488281 632.109375 574.667969 C 622.417969 574.898438 612.808594 575.390625 603.292969 575.570312 C 600.90625 575.640625 598.546875 575.613281 596.179688 575.628906 C 593.804688 575.621094 591.457031 575.554688 589.101562 575.484375 L 585.582031 575.285156 L 583.820312 575.1875 L 582.078125 575.019531 L 578.578125 574.679688 C 577.421875 574.542969 576.277344 574.351562 575.121094 574.1875 C 572.796875 573.910156 570.546875 573.363281 568.261719 572.910156 L 567.40625 572.734375 L 566.566406 572.503906 L 564.886719 572.039062 C 563.773438 571.71875 562.636719 571.464844 561.539062 571.082031 L 558.253906 569.925781 C 557.710938 569.722656 557.148438 569.558594 556.613281 569.328125 L 555.015625 568.628906 L 551.820312 567.234375 C 550.78125 566.710938 549.765625 566.152344 548.730469 565.605469 C 540.5 561.210938 533.046875 555.269531 526.421875 548.476562 C 519.785156 541.683594 513.914062 534.097656 508.476562 526.214844 L 504.476562 520.238281 L 500.707031 514.105469 C 500.082031 513.082031 499.433594 512.070312 498.832031 511.027344 L 497.050781 507.894531 L 493.484375 501.625 L 496.699219 508.085938 L 498.304688 511.320312 C 498.851562 512.394531 499.441406 513.441406 500.011719 514.503906 L 503.453125 520.859375 L 507.144531 527.078125 C 512.175781 535.304688 517.675781 543.308594 524.09375 550.648438 C 530.492188 557.972656 537.886719 564.601562 546.359375 569.753906 C 547.417969 570.390625 548.476562 571.039062 549.550781 571.664062 L 552.875 573.339844 L 554.535156 574.183594 C 555.097656 574.457031 555.683594 574.667969 556.246094 574.914062 L 559.695312 576.347656 C 560.84375 576.820312 562.039062 577.160156 563.210938 577.570312 L 564.976562 578.167969 L 565.867188 578.460938 L 566.761719 578.695312 C 569.164062 579.324219 571.554688 580.03125 573.988281 580.46875 C 575.203125 580.703125 576.414062 580.988281 577.632812 581.195312 L 581.289062 581.757812 L 583.125 582.035156 L 584.953125 582.242188 L 588.621094 582.648438 C 591.058594 582.863281 593.503906 583.058594 595.945312 583.210938 C 598.371094 583.324219 600.820312 583.488281 603.238281 583.550781 C 612.945312 583.898438 622.5625 583.9375 632.097656 584.246094 C 641.636719 584.539062 651.097656 585.085938 660.46875 586.117188 C 661.777344 586.265625 663.078125 586.417969 664.378906 586.582031 C 690.328125 621.503906 703.566406 664.074219 704.535156 714.015625 L 667.484375 687.941406 C 652.828125 677.625 636.039062 670.835938 618.390625 667.714844 C 552.523438 656.046875 501.480469 620.925781 464.382812 563.730469 C 505.738281 683.199219 651.238281 657.925781 668.089844 715.363281 C 622.019531 692.042969 553.160156 679.953125 471.660156 674.070312 C 466.71875 673.339844 461.839844 672.480469 457.058594 671.4375 C 452.792969 670.492188 448.625 669.382812 444.613281 668.097656 C 440.609375 666.808594 436.769531 665.300781 433.304688 663.535156 C 429.832031 661.769531 426.75 659.722656 424.226562 657.46875 C 421.738281 655.175781 419.839844 652.695312 418.53125 649.820312 C 417.886719 648.378906 417.332031 646.847656 416.949219 645.175781 C 416.574219 643.507812 416.316406 641.730469 416.175781 639.863281 C 416.066406 637.976562 416.054688 636.015625 416.140625 633.988281 C 416.257812 631.949219 416.425781 629.867188 416.710938 627.730469 C 417.792969 619.160156 419.957031 610.058594 421.738281 600.542969 C 422.632812 595.78125 423.449219 590.90625 423.980469 585.890625 C 424.53125 580.886719 424.78125 575.730469 424.558594 570.5 C 424.355469 565.277344 423.570312 559.960938 422.1875 554.777344 C 421.847656 553.488281 421.410156 552.210938 421.015625 550.925781 C 420.535156 549.667969 420.125 548.382812 419.578125 547.160156 L 418.167969 543.875 C 417.988281 543.425781 417.753906 542.984375 417.601562 542.53125 L 417.113281 541.167969 C 416.933594 540.714844 416.8125 540.261719 416.6875 539.796875 C 416.566406 539.339844 416.414062 538.886719 416.304688 538.421875 C 416.128906 537.496094 415.867188 536.574219 415.773438 535.632812 C 415.457031 533.765625 415.414062 531.867188 415.464844 529.953125 C 415.523438 528.042969 415.828125 526.117188 416.207031 524.175781 C 416.671875 522.246094 417.210938 520.300781 417.960938 518.378906 C 419.410156 514.519531 421.453125 510.730469 423.789062 507.03125 C 426.15625 503.335938 428.832031 499.746094 431.695312 496.226562 C 437.457031 489.191406 443.886719 482.480469 450.40625 475.714844 C 456.921875 468.941406 463.570312 462.132812 469.722656 454.648438 C 472.765625 450.882812 475.722656 446.976562 478.253906 442.683594 C 479.53125 440.554688 480.703125 438.324219 481.695312 435.972656 C 482.695312 433.644531 483.539062 431.203125 484.074219 428.644531 C 484.613281 426.101562 484.882812 423.460938 484.792969 420.816406 C 484.6875 418.175781 484.175781 415.558594 483.375 413.078125 C 482.59375 410.582031 481.421875 408.261719 480.09375 406.109375 L 479.082031 404.519531 L 478.125 403.070312 L 476.214844 400.164062 C 471.164062 392.375 466.765625 384.160156 463.242188 375.589844 C 459.84375 366.992188 457.363281 357.925781 457.0625 348.632812 C 456.894531 344.003906 457.332031 339.335938 458.496094 334.828125 C 459.078125 332.574219 459.855469 330.367188 460.867188 328.25 C 461.878906 326.152344 463.0625 324.109375 464.632812 322.355469 C 462.964844 324.011719 461.644531 326.003906 460.488281 328.066406 C 459.339844 330.136719 458.417969 332.328125 457.691406 334.589844 C 456.226562 339.113281 455.492188 343.871094 455.375 348.644531 C 455.109375 358.203125 457.105469 367.695312 460.078125 376.753906 C 463.160156 385.78125 467.179688 394.484375 471.875 402.773438 L 473.660156 405.867188 L 474.558594 407.421875 L 475.355469 408.859375 C 476.371094 410.765625 477.21875 412.734375 477.722656 414.765625 C 478.246094 416.789062 478.515625 418.847656 478.476562 420.914062 C 478.417969 422.976562 478.089844 425.035156 477.527344 427.054688 C 476.980469 429.074219 476.160156 431.066406 475.1875 432.996094 C 474.230469 434.925781 473.105469 436.808594 471.847656 438.636719 C 469.375 442.3125 466.4375 445.773438 463.359375 449.132812 C 457.144531 455.835938 450.257812 462.113281 443.34375 468.488281 C 436.417969 474.867188 429.410156 481.335938 422.804688 488.488281 C 419.507812 492.078125 416.320312 495.847656 413.359375 499.898438 C 410.429688 503.988281 407.695312 508.347656 405.53125 513.179688 C 404.429688 515.578125 403.53125 518.121094 402.746094 520.722656 C 402.046875 523.355469 401.460938 526.0625 401.191406 528.84375 C 400.9375 531.617188 400.84375 534.445312 401.128906 537.238281 C 401.199219 538.648438 401.460938 540.027344 401.664062 541.421875 C 401.785156 542.109375 401.949219 542.789062 402.09375 543.472656 C 402.246094 544.160156 402.390625 544.84375 402.59375 545.503906 L 403.175781 547.503906 C 403.367188 548.175781 403.625 548.8125 403.855469 549.460938 L 405.035156 552.734375 C 405.339844 553.539062 405.558594 554.371094 405.8125 555.1875 C 401.832031 553.296875 397.914062 551.320312 394.078125 549.214844 C 385.933594 544.761719 378.101562 539.824219 371.09375 534.042969 C 364.109375 528.265625 357.898438 521.640625 353.664062 513.921875 C 351.539062 510.070312 349.902344 505.964844 348.800781 501.679688 C 347.71875 497.382812 347.1875 492.910156 347.046875 488.339844 C 346.929688 483.773438 347.226562 479.128906 347.710938 474.449219 C 348.203125 469.765625 348.886719 465.042969 349.527344 460.269531 C 350.160156 455.492188 350.761719 450.660156 351.046875 445.757812 C 351.308594 440.863281 351.3125 435.898438 350.628906 430.984375 L 350.375 429.140625 L 350.035156 427.316406 C 349.832031 426.089844 349.484375 424.894531 349.199219 423.691406 C 348.519531 421.308594 347.753906 418.953125 346.753906 416.691406 C 344.800781 412.160156 342.207031 407.933594 339.175781 404.125 C 333.082031 396.484375 325.375 390.492188 317.339844 385.28125 C 325.007812 391.019531 332.222656 397.496094 337.605469 405.289062 C 340.296875 409.175781 342.480469 413.363281 344.027344 417.757812 C 344.828125 419.941406 345.394531 422.207031 345.875 424.472656 C 346.054688 425.621094 346.3125 426.746094 346.417969 427.90625 L 346.628906 429.636719 L 346.75 431.375 C 347.347656 440.664062 345.644531 449.96875 343.75 459.304688 C 342.796875 463.984375 341.789062 468.703125 340.945312 473.515625 C 340.113281 478.335938 339.460938 483.257812 339.242188 488.277344 C 339.050781 493.300781 339.296875 498.441406 340.214844 503.523438 C 341.152344 508.605469 342.753906 513.605469 344.945312 518.316406 C 347.136719 523.03125 349.914062 527.441406 353.042969 531.511719 C 356.171875 535.578125 359.65625 539.3125 363.316406 542.796875 C 370.671875 549.75 378.773438 555.636719 387.121094 560.972656 C 393.796875 565.234375 400.664062 569.117188 407.636719 572.738281 C 407.480469 576.28125 407.074219 579.878906 406.457031 583.511719 C 405.734375 587.8125 404.746094 592.167969 403.636719 596.601562 C 402.40625 601.582031 400.984375 606.625 399.644531 611.867188 C 398.699219 611.527344 397.773438 611.226562 396.84375 610.949219 C 391.742188 609.46875 386.890625 608.742188 382.070312 608.1875 C 377.257812 607.652344 372.515625 607.378906 367.792969 607.214844 C 365.4375 607.132812 363.082031 607.101562 360.730469 607.078125 L 357.214844 607.074219 L 355.460938 607.078125 C 354.886719 607.078125 354.441406 607.0625 353.921875 607.046875 C 345.882812 606.933594 337.820312 604.304688 331.113281 599.519531 C 327.757812 597.132812 324.730469 594.234375 322.210938 590.917969 C 321.621094 590.066406 320.984375 589.230469 320.410156 588.359375 C 319.882812 587.464844 319.296875 586.589844 318.800781 585.664062 L 318.078125 584.265625 L 317.71875 583.566406 L 317.535156 583.210938 L 317.34375 582.800781 C 317.097656 582.265625 316.765625 581.667969 316.480469 581.105469 C 316.179688 580.539062 315.914062 579.953125 315.558594 579.417969 C 310.394531 570.503906 301.433594 564.140625 291.644531 562.027344 L 289.804688 561.664062 C 289.1875 561.5625 288.5625 561.507812 287.945312 561.429688 C 286.710938 561.238281 285.453125 561.265625 284.21875 561.195312 C 283.59375 561.199219 282.976562 561.234375 282.355469 561.25 L 281.429688 561.289062 L 280.582031 561.332031 L 277.222656 561.511719 C 272.734375 561.648438 268.246094 561.527344 263.820312 560.933594 C 259.40625 560.308594 255.046875 559.226562 250.953125 557.480469 C 246.886719 555.707031 243.101562 553.25 239.9375 550.089844 C 238.363281 548.503906 236.96875 546.734375 235.734375 544.851562 C 234.496094 542.96875 233.492188 540.933594 232.648438 538.824219 C 231.808594 536.710938 231.167969 534.519531 230.726562 532.269531 C 230.289062 530.03125 230.015625 527.742188 230.042969 525.433594 C 229.847656 527.730469 229.960938 530.050781 230.246094 532.34375 C 230.539062 534.636719 231.027344 536.917969 231.730469 539.140625 C 232.4375 541.359375 233.328125 543.542969 234.480469 545.597656 C 235.632812 547.644531 236.960938 549.609375 238.507812 551.402344 C 241.621094 554.988281 245.488281 557.90625 249.703125 560.113281 C 253.945312 562.289062 258.507812 563.773438 263.144531 564.769531 C 267.789062 565.726562 272.5 566.191406 277.214844 566.375 L 280.753906 566.4375 L 281.632812 566.453125 L 282.429688 566.476562 L 284.015625 566.539062 C 285.066406 566.683594 286.125 566.722656 287.152344 566.96875 C 287.671875 567.070312 288.191406 567.148438 288.699219 567.273438 L 290.21875 567.6875 C 298.285156 570.042969 305.15625 575.816406 308.71875 583.152344 C 308.976562 583.589844 309.148438 584.074219 309.355469 584.535156 C 309.558594 585.015625 309.765625 585.433594 309.957031 585.960938 L 310.109375 586.347656 L 310.285156 586.773438 L 310.65625 587.632812 L 311.394531 589.363281 C 311.914062 590.5 312.519531 591.601562 313.09375 592.722656 C 313.699219 593.820312 314.382812 594.878906 315.039062 595.957031 C 317.792969 600.179688 321.226562 603.980469 325.148438 607.214844 C 332.992188 613.703125 342.917969 617.820312 353.257812 618.714844 L 355.160156 618.886719 L 356.855469 618.996094 L 360.234375 619.238281 C 362.480469 619.414062 364.726562 619.617188 366.957031 619.847656 C 371.410156 620.316406 375.832031 620.890625 380.128906 621.683594 C 384.402344 622.476562 388.621094 623.464844 392.285156 624.824219 C 393.820312 625.40625 395.289062 626.066406 396.382812 626.75 C 396.078125 628.558594 395.808594 630.394531 395.589844 632.269531 C 395.308594 634.933594 395.144531 637.675781 395.144531 640.492188 C 395.175781 643.316406 395.394531 646.230469 395.863281 649.1875 C 395.898438 649.351562 395.929688 649.515625 395.960938 649.679688 C 391.839844 649.515625 387.703125 649.550781 383.582031 649.859375 C 373.675781 650.558594 363.90625 652.707031 354.71875 655.945312 C 345.507812 659.183594 336.890625 663.429688 328.609375 667.796875 C 320.320312 672.152344 312.296875 676.632812 304 680.011719 C 299.84375 681.667969 295.625 683.074219 291.316406 683.96875 C 287.011719 684.839844 282.617188 685.304688 278.21875 685.09375 C 269.402344 684.765625 260.625 682.121094 252.453125 678.117188 C 244.253906 674.121094 236.558594 668.945312 229.261719 663.269531 C 221.976562 657.558594 215.039062 651.355469 208.367188 644.878906 C 214.570312 651.808594 221.0625 658.5 228.003906 664.761719 C 234.960938 671 242.40625 676.804688 250.632812 681.566406 C 254.738281 683.929688 259.066406 686.011719 263.609375 687.625 C 268.148438 689.25 272.910156 690.386719 277.78125 690.925781 C 282.648438 691.496094 287.601562 691.320312 292.464844 690.691406 C 297.332031 690.035156 302.070312 688.816406 306.664062 687.339844 C 315.84375 684.324219 324.394531 680.28125 332.851562 676.574219 C 341.296875 672.851562 349.679688 669.453125 358.234375 667.101562 C 366.769531 664.753906 375.449219 663.5 384.128906 663.488281 C 390.015625 663.457031 395.890625 664.042969 401.707031 665.074219 C 401.976562 665.515625 402.238281 665.964844 402.515625 666.398438 L 403.828125 668.335938 L 405.242188 670.164062 C 405.714844 670.785156 406.214844 671.347656 406.722656 671.917969 C 407.238281 672.480469 407.730469 673.070312 408.261719 673.601562 C 412.464844 677.914062 417.152344 681.328125 421.890625 684.121094 C 426.644531 686.921875 431.484375 689.128906 436.316406 691.027344 C 441.15625 692.917969 446.003906 694.507812 450.847656 695.890625 C 469.722656 701.289062 488.816406 702.421875 508.113281 705.378906 C 527.3125 708.324219 546.382812 712.632812 564.6875 719.199219 C 569.363281 720.878906 573.988281 722.703125 578.542969 724.703125 C 580.601562 725.613281 582.640625 726.5625 584.644531 727.589844 C 510.359375 784.308594 444.351562 801.472656 388.085938 772.003906 C 437.484375 813.457031 509.183594 798.570312 599.109375 737.625 C 600.222656 736.875 610 743.351562 611.394531 744.160156 C 615.757812 746.703125 620.007812 749.425781 624.144531 752.320312 C 632.4375 758.125 640.253906 764.621094 647.542969 771.636719 C 658.832031 782.503906 671.363281 793.828125 679.070312 807.660156 C 686.804688 821.539062 686.324219 837.179688 685.804688 852.523438 C 685.652344 857.042969 685.65625 861.660156 685.46875 866.269531 L 685.058594 866.269531 C 686.695312 985.742188 630.65625 1042.644531 532.378906 1034.746094 C 374.433594 1008.496094 227.46875 995.011719 148.921875 1061.070312 C 191.96875 1041.429688 233.558594 1025.792969 267.675781 1030.648438 C 234.328125 1054.046875 253.632812 1090.609375 190.75 1102.015625 C 267.675781 1095.875 241.351562 1043.222656 290.199219 1029.773438 C 335.066406 1029.386719 381.542969 1036.945312 428.546875 1047.027344 C 397.367188 1081.117188 357.460938 1092.847656 310.382812 1086.222656 C 359.976562 1098.480469 404.230469 1084.433594 444.929688 1052.875 C 513.515625 1050.535156 536.992188 1072.476562 630.660156 1063.699219 C 625.6875 1094.703125 546.128906 1081.246094 516.589844 1105.816406 C 498.796875 1117.539062 483.539062 1134.832031 469.644531 1155.160156 C 466.644531 1159.542969 461.851562 1162.363281 456.554688 1162.84375 C 427.691406 1165.480469 396.164062 1165.128906 362.152344 1161.976562 C 322.214844 1134.777344 286.304688 1122.785156 256.414062 1133.457031 C 294.273438 1131.929688 322.601562 1142.554688 341.96875 1164.605469 C 272.035156 1159.472656 215.191406 1163.46875 198.355469 1195.316406 C 229.546875 1167.808594 284.152344 1168.566406 342.84375 1174.257812 C 379.140625 1179.285156 415.507812 1180.890625 451.941406 1179.519531 C 410.699219 1264.339844 322.953125 1219.882812 292.828125 1269.3125 C 310.070312 1253.796875 334.882812 1246.414062 368.289062 1248.253906 C 349.144531 1265.855469 339.65625 1284.765625 341.96875 1305.289062 C 353.167969 1271.640625 369.792969 1248.898438 395.203125 1243.867188 C 395.203125 1243.867188 440.246094 1235.453125 467.882812 1198.605469 C 495.523438 1161.75 533.695312 1112.390625 590.292969 1120.289062 C 646.886719 1120.289062 680.453125 1085.773438 680.453125 1085.773438 C 680.453125 1085.773438 679.796875 1168.332031 604.769531 1199.917969 C 604.769531 1199.917969 549.300781 1217.429688 542.863281 1281.070312 C 542 1289.597656 536.332031 1296.910156 528.257812 1299.78125 C 482.433594 1316.0625 400.074219 1312.632812 382.335938 1378.265625 C 404.632812 1336.042969 456.527344 1314.519531 540.941406 1315.746094 C 533.984375 1346.738281 513.539062 1371.636719 487.636719 1394.0625 C 520.285156 1379.074219 549.328125 1354.21875 563.390625 1288.21875 C 569.207031 1260.957031 588.175781 1238.214844 614.257812 1228.367188 C 618.238281 1226.867188 622.527344 1225.484375 627.152344 1224.265625 C 674.535156 1211.761719 692.964844 1178.859375 692.964844 1178.859375 C 692.964844 1178.859375 717.328125 1222.59375 714.714844 1271.542969 C 713.054688 1302.527344 694.023438 1329.929688 665.628906 1342.453125 C 613.546875 1365.4375 583.964844 1393.3125 574.9375 1425.652344 C 598.65625 1390.179688 631.121094 1361.476562 678.632812 1344.40625 C 706.066406 1334.550781 726.308594 1310.890625 731.636719 1282.234375 C 736.792969 1254.511719 733.109375 1221.808594 724.105469 1186.101562 C 724.105469 1186.101562 716.207031 1159.777344 723.667969 1141.785156 C 731.128906 1123.796875 743.410156 1092.644531 743.410156 1092.644531 C 743.410156 1092.644531 770.613281 1133.007812 769.296875 1161.527344 C 747.675781 1215.25 746.734375 1261.179688 762.875 1300.675781 C 771.363281 1321.449219 787.535156 1338.171875 807.992188 1347.390625 C 852.421875 1367.421875 888.089844 1389.972656 902.089844 1418.777344 C 888.625 1388.339844 861.160156 1362.769531 819.125 1342.253906 C 793.574219 1329.78125 775.511719 1305.726562 770.953125 1277.660156 C 765.5625 1244.515625 771.238281 1211.3125 788.894531 1178.054688 C 788.894531 1178.054688 808.496094 1208.183594 854.410156 1222.808594 C 900.335938 1237.433594 922.859375 1252.933594 923.148438 1289.203125 C 923.4375 1325.472656 951.589844 1373.003906 981.863281 1388.136719 C 959.449219 1363.671875 942.019531 1338.847656 943.910156 1312.601562 C 943.910156 1312.960938 959.4375 1315.589844 960.230469 1315.746094 C 975.921875 1318.695312 991.664062 1321.214844 1007.355469 1324.15625 C 1023.589844 1327.195312 1039.925781 1330.046875 1054.917969 1337.203125 C 1065.574219 1342.292969 1075.464844 1349.019531 1083.96875 1357.230469 C 1089.449219 1362.515625 1093.867188 1368.320312 1098.0625 1374.613281 C 1091.253906 1361.972656 1081.78125 1350.761719 1070.527344 1341.847656 C 1064.902344 1337.394531 1058.824219 1333.503906 1052.402344 1330.304688 C 1038.417969 1323.359375 1022.632812 1320.367188 1007.78125 1315.777344 C 985.785156 1308.988281 964.359375 1300.855469 942.753906 1293.007812 C 942.753906 1293.007812 945.675781 1226.90625 878.546875 1205.1875 C 811.417969 1183.472656 799.574219 1086.070312 799.574219 1086.070312 C 799.574219 1086.070312 833.617188 1111.441406 910.695312 1117.78125 C 917.574219 1118.347656 924.316406 1120.003906 930.65625 1122.710938 C 946.765625 1129.570312 975.703125 1146.066406 1002.269531 1182.808594 C 1002.269531 1182.808594 1023.808594 1219.882812 1063.675781 1236.074219 C 1065.519531 1236.820312 1067.402344 1237.460938 1069.304688 1238.03125 C 1080.558594 1241.390625 1133.320312 1259.105469 1139.589844 1297.101562 C 1137.417969 1280.34375 1128.390625 1264.375 1112.972656 1249.136719 C 1142.855469 1250.738281 1164.246094 1258.824219 1181.710938 1269.90625 C 1165.425781 1253.292969 1139.117188 1242.960938 1103.175781 1238.65625 C 1096.621094 1237.871094 1090.246094 1235.953125 1084.394531 1232.917969 C 1055.835938 1218.105469 1037.527344 1200.367188 1033.121094 1178.652344 C 1149.679688 1184.792969 1214.832031 1150.574219 1275.378906 1194.664062 C 1255.058594 1167.0625 1213.164062 1156.382812 1146.609375 1165.054688 C 1165.707031 1142.015625 1192.050781 1133.089844 1223.828125 1134.777344 C 1195.023438 1126.011719 1160.167969 1138.769531 1122.660156 1160.914062 C 1120.496094 1162.195312 1118.03125 1162.871094 1115.507812 1162.886719 C 1081.429688 1163.117188 1048.191406 1161.882812 1016.15625 1158.472656 C 1016.15625 1158.472656 989.539062 1108.019531 928.554688 1094.414062 C 867.566406 1080.8125 851.773438 1065.457031 851.773438 1065.457031 C 851.773438 1065.457031 948.988281 1065.066406 1012.148438 1053.773438 C 1020.003906 1052.363281 1028.097656 1053.242188 1035.476562 1056.269531 C 1076.65625 1073.1875 1104.910156 1114.578125 1171.613281 1085.207031 C 1126.375 1095.886719 1085.84375 1083.582031 1050.082031 1047.914062 C 1050.082031 1047.914062 1162.835938 1024.21875 1191.355469 1030.800781 C 1218.558594 1027.730469 1220.3125 1100.121094 1291.386719 1101.4375 C 1248.917969 1092.085938 1228.914062 1064.066406 1216.804688 1029.484375 C 1255.832031 1028.585938 1295.132812 1041.113281 1334.605469 1063.046875 C 1273.5625 1011.191406 1160.660156 995.9375 982.597656 1026.648438 C 928.289062 1036.015625 874.226562 1006.773438 853.445312 955.738281 C 842.671875 929.273438 841.996094 899.789062 854.84375 866.277344 L 854.832031 866.277344 C 870.632812 797.402344 910.921875 743.664062 983.753906 710.042969 C 996.742188 715.726562 1012.691406 726.417969 1025.140625 735.484375 C 1041.878906 747.667969 1061.203125 755.855469 1081.644531 759.078125 C 1128.164062 766.414062 1175.160156 763.058594 1222.644531 748.863281 C 1120.347656 764.289062 1041.921875 753.734375 1007.367188 695.421875 C 1031.367188 683.648438 1072.214844 686.539062 1072.214844 686.539062 Z M 712.453125 863.296875 C 711.8125 875.84375 709.519531 888.230469 705.410156 899.960938 C 705.546875 896.84375 705.730469 893.757812 705.976562 890.695312 C 706 890.3125 706.035156 889.929688 706.054688 889.542969 L 706.089844 888.390625 L 706.167969 886.085938 L 706.359375 881.507812 C 706.375 880.742188 706.464844 879.984375 706.445312 879.21875 L 706.441406 876.933594 L 706.464844 872.371094 L 706.480469 870.089844 L 706.386719 867.816406 C 706.328125 866.308594 706.261719 864.789062 706.222656 863.285156 C 705.671875 851.199219 704.042969 839.273438 701.195312 827.640625 C 698.351562 815.992188 694.285156 804.667969 689.148438 793.71875 C 687.824219 791.003906 686.441406 788.308594 685.121094 785.570312 C 683.648438 782.914062 682.191406 780.246094 680.746094 777.546875 C 679.171875 774.941406 677.617188 772.300781 676.074219 769.625 C 674.414062 767.046875 672.777344 764.421875 671.1875 761.746094 C 680.363281 770.125 688.222656 779.996094 694.636719 790.8125 C 701.03125 801.632812 705.882812 813.457031 708.890625 825.746094 C 711.914062 838.035156 713.070312 850.746094 712.453125 863.296875 Z M 762.8125 814.957031 C 762.082031 829.804688 759.800781 844.566406 755.5625 858.722656 C 756.550781 843.984375 757.0625 829.414062 756.582031 814.902344 C 756.128906 800.394531 754.742188 785.980469 752.523438 771.671875 C 750.308594 757.363281 747.265625 743.171875 743.644531 729.0625 C 740.058594 714.9375 735.847656 700.929688 731.730469 686.746094 C 738.875 699.679688 744.765625 713.269531 749.59375 727.277344 C 754.398438 741.292969 758.070312 755.75 760.355469 770.457031 C 762.648438 785.15625 763.523438 800.109375 762.8125 814.957031 Z M 815.375 718.664062 C 813.730469 724.003906 812.234375 729.367188 810.890625 734.765625 C 810.207031 737.46875 809.578125 740.179688 808.980469 742.890625 L 808.101562 746.964844 C 807.816406 748.328125 807.578125 749.695312 807.308594 751.058594 L 806.90625 753.097656 L 806.542969 755.152344 C 806.320312 756.527344 806.050781 757.890625 805.851562 759.269531 L 805.203125 763.390625 C 804.96875 764.769531 804.839844 766.152344 804.625 767.527344 C 804.199219 770.28125 803.953125 773.054688 803.585938 775.820312 C 803.417969 777.203125 803.324219 778.597656 803.175781 779.980469 C 803.035156 781.367188 802.859375 782.753906 802.773438 784.152344 C 801.8125 795.304688 801.429688 806.53125 801.046875 817.976562 C 798.117188 806.902344 796.804688 795.441406 796.546875 783.945312 C 796.488281 781.070312 796.535156 778.195312 796.613281 775.316406 C 796.734375 772.441406 796.875 769.566406 797.148438 766.691406 C 797.363281 763.816406 797.75 760.964844 798.101562 758.097656 C 798.292969 756.667969 798.546875 755.246094 798.773438 753.824219 L 799.121094 751.6875 L 799.527344 749.566406 C 799.820312 748.152344 800.078125 746.738281 800.390625 745.328125 L 801.355469 741.105469 C 801.707031 739.707031 802.09375 738.3125 802.457031 736.925781 C 802.816406 735.527344 803.230469 734.144531 803.652344 732.765625 C 805.320312 727.25 807.269531 721.820312 809.539062 716.523438 C 811.808594 711.226562 814.371094 706.0625 817.273438 701.097656 C 818.742188 698.621094 820.257812 696.179688 821.90625 693.835938 C 823.546875 691.480469 825.292969 689.183594 827.21875 687.0625 C 824.828125 692.253906 822.734375 697.496094 820.765625 702.761719 C 818.824219 708.039062 817.015625 713.332031 815.375 718.664062 Z M 876.546875 769.207031 C 871.839844 775.195312 867.535156 781.453125 863.605469 787.9375 C 859.675781 794.417969 856.117188 801.109375 852.875 807.953125 C 849.636719 814.789062 846.652344 821.757812 844.054688 828.890625 L 843.042969 831.546875 L 842.109375 834.242188 L 840.257812 839.621094 L 838.527344 845.050781 L 837.671875 847.769531 L 836.890625 850.511719 L 835.292969 855.988281 L 833.84375 861.519531 C 832.828125 865.191406 832.019531 868.925781 831.105469 872.636719 C 827.613281 887.527344 824.972656 902.652344 822.394531 917.941406 C 821.683594 902.445312 822.640625 886.871094 824.992188 871.46875 C 825.625 867.621094 826.191406 863.761719 827.039062 859.953125 C 827.433594 858.039062 827.816406 856.125 828.242188 854.21875 L 829.640625 848.527344 L 830.351562 845.679688 L 831.160156 842.867188 L 832.800781 837.230469 L 834.660156 831.65625 L 835.605469 828.867188 L 836.632812 826.113281 C 837.34375 824.292969 838 822.445312 838.757812 820.636719 L 841.046875 815.214844 C 841.835938 813.417969 842.699219 811.65625 843.53125 809.875 C 844.339844 808.089844 845.242188 806.34375 846.160156 804.613281 C 849.78125 797.644531 853.847656 790.894531 858.429688 784.511719 C 863.007812 778.132812 868.082031 772.097656 873.671875 766.605469 C 876.492188 763.886719 879.417969 761.269531 882.519531 758.890625 C 885.621094 756.515625 888.828125 754.261719 892.308594 752.519531 C 886.390625 757.507812 881.3125 763.269531 876.546875 769.207031 Z M 876.546875 769.207031 " fill-opacity="1" fill-rule="nonzero"/></g><path fill="#3e5026" d="M 1307.746094 636.84375 C 1336.675781 694.113281 1393.855469 651.734375 1426.535156 663.734375 C 1398.921875 620.386719 1362.433594 604.367188 1314.726562 622.890625 C 1337.386719 622.433594 1361.527344 626.804688 1383.992188 646.039062 C 1360.65625 635.621094 1335.433594 631.898438 1307.746094 636.84375 Z M 1307.746094 636.84375 " fill-opacity="1" fill-rule="nonzero"/><path fill="#3e5026" d="M 1301.207031 671.835938 C 1317.902344 682.773438 1333.257812 697.949219 1340.015625 723.09375 C 1328.246094 703.929688 1311.773438 688.679688 1289.199219 678.503906 C 1281.738281 734.488281 1344.347656 732.144531 1362.117188 757.105469 C 1363.613281 711.882812 1345.074219 682.101562 1301.207031 671.835938 Z M 1301.207031 671.835938 " fill-opacity="1" fill-rule="nonzero"/><path fill="#3e5026" d="M 768.339844 648.722656 C 816.945312 619.949219 776.367188 572.210938 784.992188 542.808594 C 748.539062 569.609375 736.605469 602.597656 755.675781 643.414062 C 753.941406 623.535156 756.371094 602.078125 771.945312 581.214844 C 764.164062 602.3125 762.375 624.691406 768.339844 648.722656 Z M 768.339844 648.722656 " fill-opacity="1" fill-rule="nonzero"/><path fill="#3e5026" d="M 514.714844 512.449219 C 547.386719 484.203125 510.375 453.78125 512.871094 430.484375 C 489.074219 455.59375 484.570312 482.042969 504.460938 510.167969 C 500.460938 495.445312 499.371094 478.964844 508.265625 461.160156 C 505.273438 478.089844 506.964844 495.171875 514.714844 512.449219 Z M 514.714844 512.449219 " fill-opacity="1" fill-rule="nonzero"/><path fill="#3e5026" d="M 858.550781 550.9375 C 832.363281 556.992188 818.105469 572.1875 818.921875 598.9375 C 822.652344 587.683594 829.011719 576.542969 842.410156 568.824219 C 833.210938 578.511719 826.972656 590.300781 824.585938 604.8125 C 857.859375 600.53125 846.941406 564.949219 858.550781 550.9375 Z M 858.550781 550.9375 " fill-opacity="1" fill-rule="nonzero"/><path fill="#3e5026" d="M 513.980469 606.503906 C 536.925781 620.503906 557.742188 619.625 575.878906 599.941406 C 565.339844 605.375 553.003906 608.878906 538.03125 605.019531 C 551.375 604.539062 564.078125 600.476562 575.945312 591.78125 C 549.179688 571.558594 532.082031 604.621094 513.980469 606.503906 Z M 513.980469 606.503906 " fill-opacity="1" fill-rule="nonzero"/><path fill="#3e5026" d="M 428.925781 592.449219 C 437.265625 617.996094 453.65625 630.859375 480.230469 627.691406 C 468.691406 624.96875 457.039062 619.613281 448.164062 606.949219 C 458.621094 615.261719 470.910156 620.425781 485.582031 621.53125 C 478.390625 588.765625 443.910156 602.777344 428.925781 592.449219 Z M 428.925781 592.449219 " fill-opacity="1" fill-rule="nonzero"/><path fill="#3e5026" d="M 558.453125 500.441406 C 559.75 518.597656 530.179688 541.191406 554.765625 564.023438 C 561.257812 550.828125 563.039062 537.613281 561.1875 524.378906 C 567.597656 538.453125 566.296875 551.210938 562.789062 562.535156 C 579 541.242188 576.234375 520.59375 558.453125 500.441406 Z M 558.453125 500.441406 " fill-opacity="1" fill-rule="nonzero"/><path fill="#3e5026" d="M 447.1875 495.84375 C 429.40625 515.996094 426.636719 536.648438 442.851562 557.9375 C 439.34375 546.617188 438.042969 533.855469 444.453125 519.78125 C 442.601562 533.007812 444.382812 546.226562 450.875 559.425781 C 475.460938 536.59375 445.890625 514 447.1875 495.84375 Z M 447.1875 495.84375 " fill-opacity="1" fill-rule="nonzero"/><path fill="#3e5026" d="M 842.972656 483.058594 C 816.785156 489.117188 802.527344 504.308594 803.347656 531.058594 C 807.074219 519.804688 813.4375 508.671875 826.832031 500.949219 C 817.632812 510.632812 811.398438 522.421875 809.007812 536.933594 C 842.285156 532.65625 831.359375 497.078125 842.972656 483.058594 Z M 842.972656 483.058594 " fill-opacity="1" fill-rule="nonzero"/><path fill="#3e5026" d="M 822.394531 449.597656 C 803.375 441.96875 787.824219 445.253906 776.667969 462.34375 C 783.90625 456.929688 792.742188 452.738281 804.496094 453.746094 C 794.515625 455.792969 785.472656 460.449219 777.652344 468.488281 C 800.335938 480.320312 809.019531 453.304688 822.394531 449.597656 Z M 822.394531 449.597656 " fill-opacity="1" fill-rule="nonzero"/><path fill="#3e5026" d="M 824.296875 405.300781 C 804.550781 397.378906 788.402344 400.792969 776.820312 418.53125 C 784.335938 412.914062 793.515625 408.558594 805.707031 409.605469 C 795.34375 411.734375 785.960938 416.566406 777.839844 424.910156 C 801.394531 437.203125 810.40625 409.148438 824.296875 405.300781 Z M 824.296875 405.300781 " fill-opacity="1" fill-rule="nonzero"/><path fill="#3e5026" d="M 752.796875 322.5625 C 735.566406 335.050781 729.855469 350.53125 738.695312 369.785156 C 737.941406 360.433594 739.148438 350.347656 746.535156 340.585938 C 742.816406 350.484375 741.902344 361 744.636719 372.320312 C 767.585938 358.941406 748.652344 336.363281 752.796875 322.5625 Z M 752.796875 322.5625 " fill-opacity="1" fill-rule="nonzero"/><path fill="#3e5026" d="M 743.683594 395.050781 C 735.742188 375.410156 720.566406 368.941406 699.660156 372.910156 C 712.539062 379.367188 715.980469 408.628906 741.453125 401.113281 C 735.09375 391.359375 726.816406 384.804688 717.0625 380.722656 C 729.234375 382.042969 737.398438 388.082031 743.683594 395.050781 Z M 743.683594 395.050781 " fill-opacity="1" fill-rule="nonzero"/><path fill="#3e5026" d="M 562.230469 347.644531 C 561.007812 332.3125 551.90625 324.535156 536.570312 322.726562 C 544.085938 330 540.089844 351.011719 559.367188 351.355469 C 557.089844 343.214844 552.78125 336.875 546.917969 331.925781 C 555.058594 335.492188 559.394531 341.453125 562.230469 347.644531 Z M 562.230469 347.644531 " fill-opacity="1" fill-rule="nonzero"/><path fill="#3e5026" d="M 759.882812 409.863281 C 804.429688 407.078125 793.027344 358.898438 809.660156 341.304688 C 774.375 347.0625 754.125 365.996094 752.878906 401.578125 C 758.800781 386.964844 768.21875 372.738281 786.671875 363.648438 C 773.613281 375.699219 764.316406 390.804688 759.882812 409.863281 Z M 759.882812 409.863281 " fill-opacity="1" fill-rule="nonzero"/><path fill="#3e5026" d="M 745.40625 460.386719 C 738.367188 431.984375 718.871094 420.195312 689.515625 421.542969 C 705.878906 432.875 704.878906 473.558594 741.179688 468.242188 C 734.382812 453.664062 724.339844 443.09375 711.792969 435.613281 C 728.171875 439.792969 738.160156 449.644531 745.40625 460.386719 Z M 745.40625 460.386719 " fill-opacity="1" fill-rule="nonzero"/><path fill="#3e5026" d="M 1375.847656 678.078125 C 1388.460938 682.464844 1400.902344 689.816406 1409.378906 705.046875 C 1398.621094 694.519531 1385.445312 687.296875 1369.136719 684.363281 C 1373.398438 721.929688 1413.664062 710.214844 1429.261719 723.535156 C 1422.878906 693.933594 1405.996094 677.609375 1375.847656 678.078125 Z M 1375.847656 678.078125 " fill-opacity="1" fill-rule="nonzero"/><path fill="#3e5026" d="M 1323.757812 795.269531 C 1315.164062 764.03125 1296.152344 747.605469 1263.964844 749.917969 C 1277.707031 753.847656 1291.4375 760.957031 1301.40625 776.714844 C 1289.28125 766.113281 1274.773438 759.191406 1257.171875 757.035156 C 1263.980469 796.90625 1306.296875 781.980469 1323.757812 795.269531 Z M 1323.757812 795.269531 " fill-opacity="1" fill-rule="nonzero"/><path fill="#3e5026" d="M 1287.789062 594.75 C 1328.199219 592.890625 1318.582031 549.0625 1333.921875 533.363281 C 1301.859375 538.058594 1283.226562 554.910156 1281.566406 587.136719 C 1287.152344 573.980469 1295.894531 561.230469 1312.757812 553.269531 C 1300.75 563.996094 1292.097656 577.542969 1287.789062 594.75 Z M 1287.789062 594.75 " fill-opacity="1" fill-rule="nonzero"/><g clip-path="url(#297e6b1846)"><path fill="#3e5026" d="M 1380.738281 586.113281 C 1392.25 585.410156 1404.613281 587.125 1416.433594 596.4375 C 1404.359375 591.628906 1391.457031 590.265625 1377.480469 593.355469 C 1393.386719 621.863281 1421.570312 599.128906 1438.433594 604.550781 C 1423.492188 583.085938 1404.605469 575.703125 1380.738281 586.113281 Z M 1380.738281 586.113281 " fill-opacity="1" fill-rule="nonzero"/></g><path fill="#3e5026" d="M 1364.527344 478.71875 C 1352.132812 486.601562 1342.335938 497.515625 1335.921875 512.359375 C 1372.5625 516.667969 1370.390625 475.796875 1386.519531 463.933594 C 1356.96875 463.417969 1337.707031 475.828125 1331.445312 504.582031 C 1338.417969 493.574219 1348.175781 483.386719 1364.527344 478.71875 Z M 1364.527344 478.71875 " fill-opacity="1" fill-rule="nonzero"/><path fill="#3e5026" d="M 1275.953125 521.601562 C 1281.785156 508.355469 1290.808594 495.554688 1307.992188 487.714844 C 1295.6875 498.421875 1286.746094 512.03125 1282.160156 529.398438 C 1323.109375 528.046875 1313.949219 483.53125 1329.691406 467.835938 C 1297.152344 472.167969 1278.0625 488.988281 1275.953125 521.601562 Z M 1275.953125 521.601562 " fill-opacity="1" fill-rule="nonzero"/><path fill="#3e5026" d="M 1267.441406 476.28125 C 1295.628906 446.550781 1257.832031 421.308594 1258.003906 399.085938 C 1237.902344 425.027344 1236.136719 450.414062 1257.550781 475.097656 C 1252.390625 461.574219 1249.816406 446.121094 1256.53125 428.472656 C 1255.296875 444.738281 1258.5 460.707031 1267.441406 476.28125 Z M 1267.441406 476.28125 " fill-opacity="1" fill-rule="nonzero"/><path fill="#3e5026" d="M 1154.511719 338.578125 C 1148.359375 322.449219 1145.285156 304.015625 1153.296875 282.96875 C 1151.828125 302.367188 1155.648438 321.410156 1166.3125 339.992188 C 1199.929688 304.53125 1154.851562 274.433594 1155.054688 247.917969 C 1131.074219 278.859375 1128.972656 309.136719 1154.511719 338.578125 Z M 1154.511719 338.578125 " fill-opacity="1" fill-rule="nonzero"/><path fill="#3e5026" d="M 1287.453125 450.621094 C 1288.03125 437.132812 1291.535156 422.945312 1303.808594 410.308594 C 1296.742188 423.785156 1293.585938 438.644531 1295.484375 455.289062 C 1330.617188 440.238281 1307.570312 404.648438 1315.925781 385.671875 C 1289.125 400.46875 1278.230469 421.5625 1287.453125 450.621094 Z M 1287.453125 450.621094 " fill-opacity="1" fill-rule="nonzero"/><path fill="#3e5026" d="M 1202.183594 248.804688 C 1195.859375 262.648438 1193.515625 277.65625 1196.316406 294.171875 C 1230.582031 277.230469 1205.632812 242.949219 1212.945312 223.546875 C 1186.984375 239.773438 1177.25 261.429688 1188.039062 289.941406 C 1187.882812 276.441406 1190.613281 262.089844 1202.183594 248.804688 Z M 1202.183594 248.804688 " fill-opacity="1" fill-rule="nonzero"/><path fill="#3e5026" d="M 1122.441406 206.566406 C 1120.574219 221.667969 1122.859375 236.6875 1130.507812 251.597656 C 1158.074219 225.125 1123.964844 199.945312 1125.097656 179.242188 C 1105.222656 202.53125 1102.460938 226.117188 1121.339844 250.054688 C 1117.128906 237.226562 1115.40625 222.714844 1122.441406 206.566406 Z M 1122.441406 206.566406 " fill-opacity="1" fill-rule="nonzero"/><path fill="#3e5026" d="M 997.070312 162.273438 C 991.023438 174.898438 988.613281 188.660156 990.914062 203.898438 C 1022.703125 188.894531 1000.339844 156.953125 1007.386719 139.234375 C 983.242188 153.722656 973.929688 173.472656 983.371094 199.875 C 983.460938 187.445312 986.210938 174.292969 997.070312 162.273438 Z M 997.070312 162.273438 " fill-opacity="1" fill-rule="nonzero"/><path fill="#3e5026" d="M 942.429688 126.566406 C 935.417969 136.753906 931.425781 148.433594 931.339844 162.046875 C 961.144531 153.320312 946.011719 122.367188 954.597656 107.875 C 931.53125 117.203125 920.691406 133.15625 925.3125 157.5 C 927.09375 146.667969 931.300781 135.5625 942.429688 126.566406 Z M 942.429688 126.566406 " fill-opacity="1" fill-rule="nonzero"/><path fill="#3e5026" d="M 899.398438 147.585938 C 890.539062 137.929688 883.214844 125.785156 882.976562 108.6875 C 887.371094 122.789062 895.394531 135.15625 908.121094 145.28125 C 921.917969 110.847656 881.679688 102.222656 874.398438 83.457031 C 866.140625 112.011719 873.132812 133.964844 899.398438 147.585938 Z M 899.398438 147.585938 " fill-opacity="1" fill-rule="nonzero"/><path fill="#3e5026" d="M 940.523438 192.558594 C 930.503906 204.707031 924.148438 219.085938 922.535156 236.351562 C 961.3125 228.570312 945.527344 187.632812 958.027344 170.1875 C 927.738281 179.472656 912.222656 198.527344 915.390625 229.914062 C 918.839844 216.371094 925.40625 202.75 940.523438 192.558594 Z M 940.523438 192.558594 " fill-opacity="1" fill-rule="nonzero"/><path fill="#3e5026" d="M 874.382812 206.839844 C 858.734375 193.648438 844.960938 176.300781 841.175781 149.871094 C 850.800781 170.832031 865.699219 188.386719 887.429688 201.527344 C 901.914062 145.433594 837.871094 140.125 822.847656 112.519531 C 815.765625 158.375 830.980469 190.984375 874.382812 206.839844 Z M 874.382812 206.839844 " fill-opacity="1" fill-rule="nonzero"/><g clip-path="url(#84c725696f)"><path fill="#3e5026" d="M 721.257812 184.03125 C 709.453125 166.203125 700.75 144.761719 704.734375 117.148438 C 708.210938 140.996094 717.984375 162.976562 735.902344 182.542969 C 766.929688 130.582031 704.300781 106.402344 697.363281 74.308594 C 676.757812 118.203125 682.410156 155.363281 721.257812 184.03125 Z M 721.257812 184.03125 " fill-opacity="1" fill-rule="nonzero"/></g><path fill="#3e5026" d="M 604.320312 221.734375 C 609.714844 202.546875 619.554688 183.359375 641.460938 169.367188 C 626.753906 186.335938 617.183594 206.609375 614.28125 231.167969 C 669.839844 221.433594 648.773438 162.519531 667.199219 138.09375 C 623.691406 150.265625 600.90625 176.871094 604.320312 221.734375 Z M 604.320312 221.734375 " fill-opacity="1" fill-rule="nonzero"/><path fill="#3e5026" d="M 487.226562 203.652344 C 471.875 225.574219 463.023438 250.789062 462.597656 280.257812 C 527.269531 261.894531 495.054688 194.632812 513.898438 163.410156 C 463.8125 183.1875 440.070312 217.539062 449.632812 270.304688 C 453.671875 246.894531 462.96875 222.933594 487.226562 203.652344 Z M 487.226562 203.652344 " fill-opacity="1" fill-rule="nonzero"/><path fill="#3e5026" d="M 603.21875 116.355469 C 592.019531 132.730469 585.664062 151.492188 585.589844 173.335938 C 633.378906 159.191406 608.945312 109.605469 622.660156 86.304688 C 585.695312 101.378906 568.378906 127.03125 575.894531 166.066406 C 578.699219 148.679688 585.394531 130.84375 603.21875 116.355469 Z M 603.21875 116.355469 " fill-opacity="1" fill-rule="nonzero"/><path fill="#3e5026" d="M 575.867188 230.519531 C 570.277344 212.753906 560.351562 199.089844 547.082031 188.59375 C 565.257812 195.878906 575.234375 208.703125 581.917969 222.148438 C 578.152344 188.464844 557.554688 171.960938 523.640625 169.054688 C 540.707031 184.550781 533.378906 231.113281 575.867188 230.519531 Z M 575.867188 230.519531 " fill-opacity="1" fill-rule="nonzero"/><path fill="#3e5026" d="M 559.109375 164.066406 C 554.382812 149.046875 545.992188 137.492188 534.777344 128.621094 C 550.148438 134.78125 558.574219 145.617188 564.226562 156.980469 C 561.046875 128.503906 543.632812 114.558594 514.960938 112.097656 C 529.382812 125.203125 523.191406 164.566406 559.109375 164.066406 Z M 559.109375 164.066406 " fill-opacity="1" fill-rule="nonzero"/><path fill="#3e5026" d="M 1256.503906 381.042969 C 1260.445312 369.625 1267.074219 358.355469 1280.828125 350.660156 C 1271.328125 360.410156 1264.824219 372.34375 1262.199219 387.105469 C 1296.167969 383.171875 1285.496094 346.773438 1297.507812 332.640625 C 1270.742188 338.46875 1256.019531 353.769531 1256.503906 381.042969 Z M 1256.503906 381.042969 " fill-opacity="1" fill-rule="nonzero"/><path fill="#3e5026" d="M 1173.253906 414.335938 C 1168.777344 386.503906 1151.007812 373.621094 1122.722656 372.5625 C 1137.519531 384.75 1133.292969 423.71875 1168.5625 421.535156 C 1163.207031 407 1154.417969 396.042969 1142.980469 387.855469 C 1158.371094 393.183594 1167.164062 403.4375 1173.253906 414.335938 Z M 1173.253906 414.335938 " fill-opacity="1" fill-rule="nonzero"/><path fill="#3e5026" d="M 1192.191406 341.6875 C 1201.320312 329.503906 1213.617188 318.535156 1233.078125 314.597656 C 1217.921875 322.636719 1205.523438 334.449219 1196.691406 351.148438 C 1238.960938 359.515625 1240.179688 311.730469 1260.035156 299.398438 C 1225.679688 296.09375 1202.113281 308.777344 1192.191406 341.6875 Z M 1192.191406 341.6875 " fill-opacity="1" fill-rule="nonzero"/><path fill="#3e5026" d="M 1095.171875 290.265625 C 1060.507812 303.296875 1043.796875 326.644531 1049.769531 363.03125 C 1052.8125 346.980469 1059.480469 330.613281 1076.375 317.632812 C 1065.570312 332.53125 1059.195312 349.765625 1058.574219 370.019531 C 1103.246094 358.132812 1081.863281 311.523438 1095.171875 290.265625 Z M 1095.171875 290.265625 " fill-opacity="1" fill-rule="nonzero"/><path fill="#3e5026" d="M 1056.886719 266.238281 C 1039.027344 273.339844 1023.785156 284.976562 1011.914062 302.488281 C 1057.949219 316.964844 1065.136719 263.917969 1088.753906 252.609375 C 1050.910156 244.730469 1023.125 255.972656 1008.0625 291.402344 C 1019.707031 278.953125 1034.734375 268.246094 1056.886719 266.238281 Z M 1056.886719 266.238281 " fill-opacity="1" fill-rule="nonzero"/><path fill="#3e5026" d="M 996.441406 273.054688 C 995.679688 264.277344 996.757812 254.800781 1003.644531 245.59375 C 1000.207031 254.910156 999.410156 264.789062 1002.039062 275.40625 C 1023.507812 262.714844 1005.605469 241.621094 1009.421875 228.636719 C 993.308594 240.457031 988.03125 255.023438 996.441406 273.054688 Z M 996.441406 273.054688 " fill-opacity="1" fill-rule="nonzero"/><path fill="#3e5026" d="M 982.125 217.265625 C 955.722656 223.199219 941.265625 238.402344 941.910156 265.34375 C 945.738281 254.035156 952.214844 242.863281 965.757812 235.171875 C 956.433594 244.863281 950.074219 256.695312 947.578125 271.289062 C 981.109375 267.199219 970.34375 231.304688 982.125 217.265625 Z M 982.125 217.265625 " fill-opacity="1" fill-rule="nonzero"/><path fill="#3e5026" d="M 1057.703125 182.484375 C 1044.722656 193.484375 1035.207031 207.554688 1030.1875 225.609375 C 1072.914062 224.761719 1063.972656 178.199219 1080.605469 162.046875 C 1046.609375 166.121094 1026.464844 183.402344 1023.816406 217.394531 C 1030.085938 203.652344 1039.675781 190.421875 1057.703125 182.484375 Z M 1057.703125 182.484375 " fill-opacity="1" fill-rule="nonzero"/><path fill="#3e5026" d="M 1329.683594 574.871094 C 1340.40625 560.316406 1354.902344 547.171875 1377.984375 542.3125 C 1360.0625 552.003906 1345.449219 566.152344 1335.117188 586.070312 C 1385.394531 595.601562 1386.386719 538.839844 1409.855469 524.007812 C 1369.019531 520.402344 1341.15625 535.691406 1329.683594 574.871094 Z M 1329.683594 574.871094 " fill-opacity="1" fill-rule="nonzero"/><path fill="#3e5026" d="M 1044.894531 491.199219 C 1035.199219 458.085938 1011.644531 445.160156 977.136719 448.207031 C 996.972656 460.742188 997.808594 508.714844 1040.300781 500.660156 C 1031.574219 483.824219 1019.222656 471.871094 1004.078125 463.679688 C 1023.578125 467.789062 1035.832031 478.894531 1044.894531 491.199219 Z M 1044.894531 491.199219 " fill-opacity="1" fill-rule="nonzero"/><path fill="#3e5026" d="M 1028.3125 426.71875 C 1021.289062 402.738281 1004.230469 393.375 979.230469 395.578125 C 993.597656 404.660156 994.199219 439.410156 1024.988281 433.574219 C 1018.664062 421.378906 1009.71875 412.722656 998.742188 406.785156 C 1012.863281 409.765625 1021.742188 417.8125 1028.3125 426.71875 Z M 1028.3125 426.71875 " fill-opacity="1" fill-rule="nonzero"/><path fill="#3e5026" d="M 907.347656 318.035156 C 907.105469 298.195312 896.066406 287.390625 876.480469 283.734375 C 885.523438 293.746094 878.558594 320.445312 903.339844 322.566406 C 901.109375 311.894531 896.125 303.363281 889.003906 296.476562 C 899.164062 301.769531 904.230469 309.816406 907.347656 318.035156 Z M 907.347656 318.035156 " fill-opacity="1" fill-rule="nonzero"/><path fill="#3e5026" d="M 776.121094 203.839844 C 774.351562 217.777344 767.25 227.011719 759.128906 234.085938 C 781.828125 225.382812 789.5625 208.101562 785.445312 184.035156 C 777.773438 198.683594 744.132812 202.019531 752.222656 231.402344 C 763.546875 224.300781 771.234375 214.945312 776.121094 203.839844 Z M 776.121094 203.839844 " fill-opacity="1" fill-rule="nonzero"/><path fill="#3e5026" d="M 718.671875 222.824219 C 717.753906 187.042969 678.808594 194.761719 665.191406 180.910156 C 668.765625 209.359375 683.34375 226.148438 711.824219 228.199219 C 700.285156 223.015625 689.160156 215.054688 682.421875 199.996094 C 691.699219 210.8125 703.535156 218.710938 718.671875 222.824219 Z M 718.671875 222.824219 " fill-opacity="1" fill-rule="nonzero"/><path fill="#3e5026" d="M 528.261719 237.664062 C 531.488281 263.289062 544.609375 278.410156 570.265625 280.257812 C 559.875 275.589844 549.851562 268.417969 543.785156 254.855469 C 552.140625 264.597656 562.800781 271.714844 576.4375 275.421875 C 575.605469 243.191406 540.523438 250.144531 528.261719 237.664062 Z M 528.261719 237.664062 " fill-opacity="1" fill-rule="nonzero"/><path fill="#3e5026" d="M 423.324219 230.160156 C 428.074219 212.410156 427.046875 195.777344 421.558594 180.007812 C 432.839844 195.699219 434.347656 211.660156 432.796875 226.390625 C 447.496094 196.351562 439.082031 171.707031 412.386719 151.328125 C 418.394531 173.261719 387.636719 208.15625 423.324219 230.160156 Z M 423.324219 230.160156 " fill-opacity="1" fill-rule="nonzero"/><path fill="#3e5026" d="M 417.304688 310.375 C 416.054688 292.035156 409.699219 276.632812 399.398438 263.496094 C 415.152344 274.6875 421.75 289.296875 425.050781 303.738281 C 429.230469 270.558594 413.292969 249.960938 381.441406 239.328125 C 394.21875 258.144531 376.417969 301.109375 417.304688 310.375 Z M 417.304688 310.375 " fill-opacity="1" fill-rule="nonzero"/><path fill="#3e5026" d="M 340.53125 246.558594 C 345.160156 265.316406 340.628906 280.695312 333.707031 293.792969 C 358.527344 271.375 359.890625 245.371094 342.6875 216.523438 C 340.097656 239.125 298.574219 260.0625 323.511719 293.769531 C 334.527344 279.050781 339.757812 263.234375 340.53125 246.558594 Z M 340.53125 246.558594 " fill-opacity="1" fill-rule="nonzero"/><path fill="#3e5026" d="M 287.214844 337.039062 C 294.597656 314.257812 294.378906 292.550781 288.304688 271.671875 C 301.921875 292.851562 302.804688 313.714844 299.792969 332.777344 C 320.953125 294.6875 311.671875 262.050781 278.316406 233.734375 C 284.644531 262.6875 242.269531 306 287.214844 337.039062 Z M 287.214844 337.039062 " fill-opacity="1" fill-rule="nonzero"/><path fill="#3e5026" d="M 279.769531 374.335938 C 261.695312 371.054688 243.21875 363.691406 228.472656 344.796875 C 245.332031 356.824219 264.765625 363.84375 287.558594 364.375 C 273.796875 314.222656 221.550781 338.675781 197.523438 323.882812 C 212.480469 362.761719 238.886719 381.367188 279.769531 374.335938 Z M 279.769531 374.335938 " fill-opacity="1" fill-rule="nonzero"/><path fill="#3e5026" d="M 193.882812 493.585938 C 181.46875 477.082031 171.835938 456.914062 174.074219 430.066406 C 178.808594 452.851562 189.503906 473.476562 207.914062 491.308594 C 234.8125 439.410156 173.03125 419.734375 164.484375 389.191406 C 147.164062 432.695312 154.769531 468.199219 193.882812 493.585938 Z M 193.882812 493.585938 " fill-opacity="1" fill-rule="nonzero"/><path fill="#3e5026" d="M 185.574219 629.292969 C 164.226562 571.710938 105.28125 605.859375 75.492188 590.933594 C 97.085938 635.132812 130.066406 654.296875 177.4375 641.8125 C 155.832031 639.808594 133.34375 633.050781 114.050781 612.34375 C 135.117188 624.753906 158.707031 631.011719 185.574219 629.292969 Z M 185.574219 629.292969 " fill-opacity="1" fill-rule="nonzero"/><path fill="#3e5026" d="M 365.78125 772.304688 C 371.421875 722.082031 315.453125 725.332031 299.09375 703.328125 C 298.59375 743.8125 315.726562 770.113281 355.160156 778.492188 C 340.027344 769.015625 326.007812 755.714844 319.5 733.351562 C 330.378906 750.277344 345.398438 763.621094 365.78125 772.304688 Z M 365.78125 772.304688 " fill-opacity="1" fill-rule="nonzero"/><path fill="#3e5026" d="M 362.746094 789.269531 C 340.585938 766.425781 319.765625 794.941406 302.523438 794.089844 C 322.007812 810.535156 341.652344 812.734375 361.507812 796.910156 C 350.84375 800.472656 338.765625 801.972656 325.285156 796.183594 C 337.867188 797.671875 350.363281 795.703125 362.746094 789.269531 Z M 362.746094 789.269531 " fill-opacity="1" fill-rule="nonzero"/><path fill="#3e5026" d="M 381.308594 771.117188 C 386.980469 758.375 388.191406 745.78125 385.945312 733.308594 C 392.535156 746.414062 391.769531 758.558594 388.855469 769.417969 C 403.449219 748.644531 400.074219 729.164062 382.476562 710.710938 C 384.375 727.871094 357.167969 750.371094 381.308594 771.117188 Z M 381.308594 771.117188 " fill-opacity="1" fill-rule="nonzero"/><path fill="#3e5026" d="M 187.613281 679.007812 C 177.261719 695.671875 162.710938 711.128906 138.164062 718.371094 C 156.722656 706.347656 171.316406 689.789062 180.777344 667.367188 C 125.574219 661.371094 129.378906 722.847656 105.261719 740.90625 C 149.738281 741.296875 178.566406 722.367188 187.613281 679.007812 Z M 187.613281 679.007812 " fill-opacity="1" fill-rule="nonzero"/><g clip-path="url(#b3ef83730c)"><path fill="#3e5026" d="M 123.726562 667.921875 C 115.910156 680.503906 104.925781 692.171875 86.394531 697.640625 C 100.402344 688.5625 111.417969 676.066406 118.5625 659.132812 C 76.886719 654.609375 79.753906 701.015625 61.554688 714.652344 C 95.136719 714.941406 116.898438 700.65625 123.726562 667.921875 Z M 123.726562 667.921875 " fill-opacity="1" fill-rule="nonzero"/></g><path fill="#3e5026" d="M 303.914062 655.3125 C 288.050781 620.277344 252.726562 644.195312 233.457031 636.179688 C 248.886719 662.84375 270.335938 673.371094 299.378906 663.496094 C 285.796875 663.191406 271.449219 659.953125 258.484375 647.863281 C 272.195312 654.695312 287.207031 657.570312 303.914062 655.3125 Z M 303.914062 655.3125 " fill-opacity="1" fill-rule="nonzero"/><path fill="#3e5026" d="M 185.574219 715.222656 C 205.960938 728.316406 224.746094 727.960938 241.503906 710.605469 C 231.894531 715.277344 220.695312 718.179688 207.285156 714.386719 C 219.324219 714.234375 230.863281 710.839844 241.734375 703.253906 C 218.03125 684.460938 201.933594 713.898438 185.574219 715.222656 Z M 185.574219 715.222656 " fill-opacity="1" fill-rule="nonzero"/><path fill="#3e5026" d="M 239.582031 785.746094 C 263.285156 780.722656 276.390625 767.261719 276.105469 743.136719 C 272.558594 753.21875 266.640625 763.148438 254.429688 769.890625 C 262.886719 761.3125 268.699219 750.792969 271.09375 737.746094 C 241.027344 741.046875 250.28125 773.300781 239.582031 785.746094 Z M 239.582031 785.746094 " fill-opacity="1" fill-rule="nonzero"/><path fill="#3e5026" d="M 237.214844 740.429688 C 218.3125 723.839844 203.726562 747.617188 190.089844 748.039062 C 206.46875 759.753906 222.085938 760.242188 236.714844 746.523438 C 228.546875 750.003906 219.128906 751.949219 208.148438 748.246094 C 218.15625 748.621094 227.871094 746.28125 237.214844 740.429688 Z M 237.214844 740.429688 " fill-opacity="1" fill-rule="nonzero"/><path fill="#3e5026" d="M 409.15625 381.503906 C 408.042969 365.160156 402.375 351.429688 393.195312 339.71875 C 407.238281 349.691406 413.113281 362.71875 416.058594 375.589844 C 419.785156 346.015625 405.582031 327.660156 377.1875 318.179688 C 388.582031 334.945312 372.710938 373.238281 409.15625 381.503906 Z M 409.15625 381.503906 " fill-opacity="1" fill-rule="nonzero"/><path fill="#3e5026" d="M 305.84375 369.15625 C 311.492188 356.433594 320.207031 344.144531 336.757812 336.664062 C 324.894531 346.921875 316.25 359.984375 311.792969 376.671875 C 351.175781 375.496094 342.503906 332.65625 357.679688 317.609375 C 326.386719 321.675781 307.972656 337.792969 305.84375 369.15625 Z M 305.84375 369.15625 " fill-opacity="1" fill-rule="nonzero"/><path fill="#3e5026" d="M 342.585938 406.695312 C 345.875 399.28125 350.953125 392.128906 360.589844 387.765625 C 353.675781 393.746094 348.644531 401.347656 346.042969 411.070312 C 368.984375 410.390625 363.933594 385.4375 372.777344 376.671875 C 354.550781 379.039062 343.824219 388.429688 342.585938 406.695312 Z M 342.585938 406.695312 " fill-opacity="1" fill-rule="nonzero"/><path fill="#3e5026" d="M 311.101562 429.097656 C 297.035156 409.363281 278.429688 406.214844 256.226562 416.195312 C 272.28125 419.9375 283.894531 451.578125 310.238281 436.4375 C 300.566406 427.28125 289.613281 422.195312 277.675781 420.253906 C 291.5625 418.476562 302.253906 423.023438 311.101562 429.097656 Z M 311.101562 429.097656 " fill-opacity="1" fill-rule="nonzero"/><path fill="#3e5026" d="M 222.585938 435.246094 C 223.933594 418.503906 220.257812 403.726562 212.726562 390.460938 C 225.453125 402.703125 229.441406 416.800781 230.480469 430.292969 C 238.738281 400.867188 227.113281 380.105469 199.753906 366.195312 C 208.769531 384.917969 186.882812 421.351562 222.585938 435.246094 Z M 222.585938 435.246094 " fill-opacity="1" fill-rule="nonzero"/><path fill="#3e5026" d="M 307.949219 493.902344 C 300.960938 482.566406 291.683594 474.832031 280.644531 469.882812 C 294.519531 471.746094 303.6875 478.890625 310.675781 487.03125 C 302.160156 464.339844 284.988281 456.511719 260.96875 460.441406 C 275.515625 468.199219 278.597656 501.761719 307.949219 493.902344 Z M 307.949219 493.902344 " fill-opacity="1" fill-rule="nonzero"/><path fill="#3e5026" d="M 201.933594 548.515625 C 181.550781 524.210938 156.957031 522.011719 129.011719 537.3125 C 150.339844 540.550781 168.742188 580.640625 201.550781 558.179688 C 187.992188 547.226562 173.179688 541.714844 157.398438 540.40625 C 175.347656 536.667969 189.761719 541.503906 201.933594 548.515625 Z M 201.933594 548.515625 " fill-opacity="1" fill-rule="nonzero"/><path fill="#3e5026" d="M 137.296875 574.738281 C 124.566406 564.457031 110.664062 559.28125 95.855469 558.054688 C 112.695312 554.542969 126.230469 559.085938 137.652344 565.667969 C 118.523438 542.851562 95.4375 540.792969 69.207031 555.152344 C 89.226562 558.195312 106.5 595.824219 137.296875 574.738281 Z M 137.296875 574.738281 " fill-opacity="1" fill-rule="nonzero"/><path fill="#3e5026" d="M 216.492188 616.257812 C 215.898438 590.890625 201.621094 577.238281 176.523438 572.84375 C 188.230469 585.519531 179.714844 619.761719 211.4375 622.109375 C 208.433594 608.496094 201.925781 597.652344 192.722656 588.957031 C 205.796875 595.574219 212.390625 605.796875 216.492188 616.257812 Z M 216.492188 616.257812 " fill-opacity="1" fill-rule="nonzero"/><path fill="#3e5026" d="M 268.308594 588.511719 C 253.300781 573.820312 236.941406 573.96875 219.523438 585.867188 C 233.785156 586.617188 248.523438 611.839844 268.683594 594.90625 C 259.039062 588.574219 248.914062 585.902344 238.433594 586.0625 C 250.019531 582.433594 259.832031 584.679688 268.308594 588.511719 Z M 268.308594 588.511719 " fill-opacity="1" fill-rule="nonzero"/><path fill="#3e5026" d="M 263.902344 472.066406 C 238.53125 478.382812 224.910156 493.390625 226.128906 519.394531 C 229.574219 508.394531 235.578125 497.457031 248.488281 489.726562 C 239.695312 499.296875 233.824219 510.863281 231.730469 525.011719 C 264.027344 520.3125 252.835938 485.886719 263.902344 472.066406 Z M 263.902344 472.066406 " fill-opacity="1" fill-rule="nonzero"/><path fill="#3e5026" d="M 283.664062 502.714844 C 265.984375 507.113281 256.492188 517.574219 257.34375 535.691406 C 259.742188 528.023438 263.929688 520.40625 272.925781 515.015625 C 266.800781 521.683594 262.707031 529.746094 261.25 539.605469 C 283.757812 536.339844 275.953125 512.34375 283.664062 502.714844 Z M 283.664062 502.714844 " fill-opacity="1" fill-rule="nonzero"/><path fill="#3e5026" d="M 157.945312 514.4375 C 145.648438 508.550781 133.871094 499.667969 127.003906 483.261719 C 136.71875 495.164062 149.253906 503.992188 165.464844 508.828125 C 165.421875 470.242188 123.246094 477.527344 108.941406 462.246094 C 112.046875 492.996094 127.3125 511.476562 157.945312 514.4375 Z M 157.945312 514.4375 " fill-opacity="1" fill-rule="nonzero"/><path fill="#3e5026" d="M 331.910156 526.226562 C 318.308594 514.738281 304.496094 515.886719 290.507812 527.023438 C 302.613281 526.773438 316.640625 547.175781 332.625 531.605469 C 324.078125 526.851562 315.355469 525.222656 306.507812 526.007812 C 316.070312 522.226562 324.511719 523.515625 331.910156 526.226562 Z M 331.910156 526.226562 " fill-opacity="1" fill-rule="nonzero"/><path fill="#3e5026" d="M 361.65625 552.40625 C 345.699219 544.335938 331.9375 546.019531 320.953125 560.019531 C 327.652344 555.863281 335.648438 552.886719 345.78125 554.660156 C 336.957031 555.679688 328.746094 559.042969 321.339844 565.4375 C 340.152344 577.441406 349.746094 554.617188 361.65625 552.40625 Z M 361.65625 552.40625 " fill-opacity="1" fill-rule="nonzero"/><path fill="#3e5026" d="M 416.839844 421.1875 C 392.730469 409.460938 372.136719 412.300781 355.988281 433.5625 C 365.933594 427.171875 377.859375 422.523438 393.09375 424.9375 C 379.882812 426.683594 367.648438 431.914062 356.691406 441.667969 C 385.195312 459.230469 399.039062 424.78125 416.839844 421.1875 Z M 416.839844 421.1875 " fill-opacity="1" fill-rule="nonzero"/><path fill="#3e5026" d="M 519.480469 274.851562 C 528.121094 301.816406 545.316406 315.457031 573.320312 312.269531 C 561.183594 309.339844 548.9375 303.628906 539.664062 290.238281 C 550.632812 299.054688 563.546875 304.570312 578.996094 305.816406 C 571.597656 271.257812 535.203125 285.824219 519.480469 274.851562 Z M 519.480469 274.851562 " fill-opacity="1" fill-rule="nonzero"/><path fill="#3e5026" d="M 468.382812 378.207031 C 475.460938 364.929688 485.8125 352.359375 504.226562 345.578125 C 490.636719 355.714844 480.308594 369.128906 474.203125 386.773438 C 516.753906 388.558594 510.722656 341.707031 528.257812 326.667969 C 494.207031 328.617188 473.105469 344.566406 468.382812 378.207031 Z M 468.382812 378.207031 " fill-opacity="1" fill-rule="nonzero"/><path fill="#3e5026" d="M 461.171875 333.4375 C 500.121094 335.078125 494.605469 292.183594 510.65625 278.417969 C 479.480469 280.210938 460.167969 294.808594 455.84375 325.601562 C 462.320312 313.445312 471.796875 301.941406 488.660156 295.730469 C 476.214844 305.011719 466.757812 317.289062 461.171875 333.4375 Z M 461.171875 333.4375 " fill-opacity="1" fill-rule="nonzero"/><path fill="#3e5026" d="M 633.878906 266.390625 C 651.074219 260.542969 657.34375 247.863281 654.960938 229.777344 C 648.8125 240.496094 623.597656 242.019531 628.796875 264.1875 C 637.453125 259.214844 643.460938 252.449219 647.429688 244.292969 C 645.714844 254.644531 640.148438 261.339844 633.878906 266.390625 Z M 633.878906 266.390625 " fill-opacity="1" fill-rule="nonzero"/><path fill="#3e5026" d="M 786.738281 150.132812 C 781.140625 165.648438 770.636719 174.421875 759.511719 180.445312 C 787.757812 176.285156 801.046875 158.457031 802.492188 129.816406 C 789.949219 144.640625 750.53125 139.839844 752.28125 175.597656 C 767.082031 170.367188 778.292969 161.609375 786.738281 150.132812 Z M 786.738281 150.132812 " fill-opacity="1" fill-rule="nonzero"/><path fill="#3e5026" d="M 777.59375 95.957031 C 778.75 108.71875 774.238281 118.34375 768.386719 126.238281 C 786.90625 114.03125 790.398438 97.121094 782.019531 76.488281 C 778.058594 91.042969 748.738281 100.609375 761.710938 125.199219 C 770.40625 116.65625 775.417969 106.808594 777.59375 95.957031 Z M 777.59375 95.957031 " fill-opacity="1" fill-rule="nonzero"/><path fill="#3e5026" d="M 713.78125 267.835938 C 713.191406 244.792969 688.109375 249.761719 679.34375 240.847656 C 681.644531 259.167969 691.035156 269.976562 709.371094 271.292969 C 701.941406 267.960938 694.777344 262.828125 690.4375 253.132812 C 696.40625 260.09375 704.03125 265.183594 713.78125 267.835938 Z M 713.78125 267.835938 " fill-opacity="1" fill-rule="nonzero"/><path fill="#3e5026" d="M 832.472656 342.363281 C 847.707031 348.183594 854.859375 380.742188 882.703125 369.425781 C 874.441406 359.152344 864.390625 352.710938 852.945312 349.207031 C 866.796875 349.328125 876.667969 355.214844 884.53125 362.347656 C 873.382812 341.125 855.566406 335.554688 832.472656 342.363281 Z M 832.472656 342.363281 " fill-opacity="1" fill-rule="nonzero"/><path fill="#3e5026" d="M 880.011719 317.417969 C 872.523438 292.265625 854.566406 282.515625 828.324219 284.949219 C 843.453125 294.417969 844.25 330.90625 876.554688 324.632812 C 869.859375 311.859375 860.417969 302.808594 848.871094 296.628906 C 863.71875 299.683594 873.070312 308.09375 880.011719 317.417969 Z M 880.011719 317.417969 " fill-opacity="1" fill-rule="nonzero"/><path fill="#3e5026" d="M 1258.664062 700.804688 C 1234.351562 707.4375 1221.554688 722.195312 1223.296875 747.230469 C 1226.375 736.550781 1231.925781 725.878906 1244.195312 718.15625 C 1235.933594 727.570312 1230.523438 738.839844 1228.816406 752.523438 C 1259.835938 747.292969 1248.296875 714.359375 1258.664062 700.804688 Z M 1258.664062 700.804688 " fill-opacity="1" fill-rule="nonzero"/><path fill="#3e5026" d="M 1024.960938 661.621094 C 1057.917969 644.367188 1032.871094 611.574219 1039.546875 592.53125 C 1014.652344 608.90625 1005.671875 630.195312 1016.8125 657.695312 C 1016.359375 644.5625 1018.6875 630.53125 1029.644531 617.34375 C 1023.808594 630.953125 1021.863281 645.605469 1024.960938 661.621094 Z M 1024.960938 661.621094 " fill-opacity="1" fill-rule="nonzero"/><path fill="#3e5026" d="M 1138.863281 599.335938 C 1112.261719 605.933594 1097.96875 621.652344 1099.226562 648.914062 C 1102.84375 637.382812 1109.152344 625.925781 1122.691406 617.835938 C 1113.464844 627.859375 1107.300781 639.976562 1105.097656 654.8125 C 1138.957031 649.914062 1127.25 613.8125 1138.863281 599.335938 Z M 1138.863281 599.335938 " fill-opacity="1" fill-rule="nonzero"/><path fill="#3e5026" d="M 1183.042969 562.675781 C 1193.117188 529.980469 1155.480469 525.101562 1147.367188 508.410156 C 1141.941406 535.273438 1150.023438 554.921875 1175.199219 565.460938 C 1166.328125 557.25 1158.671875 546.640625 1157.15625 530.949219 C 1162.265625 543.574219 1170.574219 554.335938 1183.042969 562.675781 Z M 1183.042969 562.675781 " fill-opacity="1" fill-rule="nonzero"/><path fill="#3e5026" d="M 1235.949219 480.363281 C 1210.671875 490.945312 1198.941406 508.671875 1204.351562 535.414062 C 1206.167969 523.464844 1210.648438 511.175781 1222.792969 501.117188 C 1215.207031 512.433594 1210.964844 525.351562 1211.054688 540.351562 C 1243.765625 530.335938 1226.683594 496.449219 1235.949219 480.363281 Z M 1235.949219 480.363281 " fill-opacity="1" fill-rule="nonzero"/><path fill="#3e5026" d="M 1192.191406 384.023438 C 1200.757812 378.511719 1211.027344 374.507812 1224.148438 376.578125 C 1212.769531 378.082031 1202.238281 382.597656 1192.804688 391.007812 C 1217.355469 406.113281 1229.269531 376.441406 1244.597656 373.34375 C 1223.828125 363.246094 1206.089844 365.703125 1192.191406 384.023438 Z M 1192.191406 384.023438 " fill-opacity="1" fill-rule="nonzero"/><path fill="#3e5026" d="M 1187.128906 518.816406 C 1210.550781 493.875 1178.886719 472.949219 1178.941406 454.390625 C 1162.257812 476.132812 1160.882812 497.339844 1178.867188 517.863281 C 1174.503906 506.59375 1172.292969 493.699219 1177.832031 478.9375 C 1176.867188 492.527344 1179.605469 505.84375 1187.128906 518.816406 Z M 1187.128906 518.816406 " fill-opacity="1" fill-rule="nonzero"/><path fill="#3e5026" d="M 1056.785156 637.871094 C 1057.421875 622.328125 1061.417969 605.980469 1075.527344 591.394531 C 1067.421875 606.9375 1063.820312 624.0625 1066.054688 643.234375 C 1106.484375 625.804688 1079.847656 584.871094 1089.421875 562.988281 C 1058.578125 580.101562 1046.085938 604.421875 1056.785156 637.871094 Z M 1056.785156 637.871094 " fill-opacity="1" fill-rule="nonzero"/><path fill="#3e5026" d="M 1190.867188 783.449219 C 1190.355469 833.40625 1245.070312 824.589844 1263.363281 844.59375 C 1259.800781 804.734375 1240.3125 780.585938 1200.691406 776.300781 C 1216.523438 784.105469 1231.648438 795.769531 1240.289062 817.113281 C 1227.886719 801.558594 1211.78125 789.949219 1190.867188 783.449219 Z M 1190.867188 783.449219 " fill-opacity="1" fill-rule="nonzero"/><path fill="#3e5026" d="M 1190.40625 523.84375 C 1190.738281 524.996094 1191.070312 526.144531 1191.398438 527.296875 C 1191.015625 525.09375 1190.675781 523.847656 1190.40625 523.84375 Z M 1190.40625 523.84375 " fill-opacity="1" fill-rule="nonzero"/></svg>