<svg xmlns="http://www.w3.org/2000/svg" xmlns:xlink="http://www.w3.org/1999/xlink" width="2000" zoomAndPan="magnify" viewBox="0 0 1500 1499.999933" height="2000" preserveAspectRatio="xMidYMid meet" version="1.0"><defs><clipPath id="a23b897c63"><path d="M 306 109.902344 L 1194 109.902344 L 1194 973 L 306 973 Z M 306 109.902344 " clip-rule="nonzero"/></clipPath><clipPath id="89826b9e04"><path d="M 242 794 L 725 794 L 725 1390.152344 L 242 1390.152344 Z M 242 794 " clip-rule="nonzero"/></clipPath><clipPath id="770464ee0c"><path d="M 775 794 L 1258 794 L 1258 1390.152344 L 775 1390.152344 Z M 775 794 " clip-rule="nonzero"/></clipPath></defs><g clip-path="url(#a23b897c63)"><path fill="#3e5026" d="M 1193.058594 650.582031 C 1193.058594 595.722656 1160.539062 548.320312 1113.742188 526.683594 C 1122.980469 501.285156 1125.335938 473.976562 1120.5625 447.097656 C 1107.832031 375.203125 1046.621094 322.628906 975.03125 319.640625 C 966.871094 202.628906 869.039062 109.910156 749.980469 109.910156 C 630.925781 109.910156 533.160156 202.59375 524.96875 319.609375 C 453.34375 322.628906 392.203125 375.207031 379.402344 447.097656 C 374.628906 473.972656 376.984375 501.285156 386.222656 526.683594 C 339.460938 548.320312 306.9375 595.722656 306.9375 650.582031 C 306.9375 705.4375 338.214844 750.992188 383.566406 773.199219 C 378.394531 790.46875 376.242188 808.742188 377.28125 826.785156 C 379.632812 866.527344 396.933594 903.378906 426.027344 930.589844 C 454.886719 957.601562 492.175781 972.285156 531.511719 972.285156 C 533.257812 972.285156 535.039062 972.246094 536.785156 972.179688 C 578.074219 970.804688 616.335938 953.433594 644.558594 923.300781 C 648.992188 918.5625 648.71875 911.105469 643.988281 906.671875 C 639.253906 902.238281 631.792969 902.472656 627.355469 907.210938 C 603.4375 932.808594 571.019531 947.523438 536.011719 948.699219 C 501.074219 949.90625 467.648438 937.34375 442.085938 913.390625 C 417.421875 890.34375 402.742188 859.070312 400.761719 825.40625 C 399.921875 810.726562 401.535156 795.84375 405.53125 781.730469 C 417.5625 785.195312 430.292969 787.074219 443.425781 787.074219 C 449.910156 787.074219 455.183594 781.796875 455.183594 775.316406 C 455.183594 768.832031 449.910156 763.558594 443.425781 763.558594 C 431.332031 763.558594 419.640625 761.644531 408.722656 758.117188 C 404.421875 756.738281 400.257812 755.09375 396.226562 753.210938 C 357.421875 735.300781 330.449219 696.03125 330.449219 650.582031 C 330.449219 588.261719 381.105469 537.601562 443.425781 537.601562 C 449.910156 537.601562 455.183594 532.328125 455.183594 525.84375 C 455.183594 519.363281 449.910156 514.085938 443.425781 514.085938 C 431.296875 514.085938 419.507812 515.664062 408.316406 518.65625 C 400.488281 497.121094 398.542969 473.976562 402.574219 451.195312 C 413.320312 390.726562 464.453125 346.347656 524.523438 343.1875 C 525.03125 358.4375 527.078125 373.589844 530.605469 388.339844 C 531.917969 393.714844 536.71875 397.339844 542.03125 397.339844 C 542.9375 397.339844 543.878906 397.238281 544.785156 397.003906 C 551.097656 395.492188 554.996094 389.144531 553.484375 382.824219 C 550.09375 368.644531 548.210938 354 547.976562 339.289062 C 547.910156 338.042969 547.910156 336.769531 547.910156 335.523438 C 547.910156 331.664062 548.011719 327.796875 548.246094 324.003906 C 554.226562 217.910156 642.441406 133.417969 749.980469 133.417969 C 857.523438 133.417969 945.773438 217.910156 951.753906 324.003906 C 951.988281 327.796875 952.089844 331.664062 952.089844 335.523438 C 952.089844 336.769531 952.089844 338.042969 952.023438 339.289062 C 951.789062 354.003906 949.910156 368.648438 946.515625 382.824219 C 945.003906 389.136719 948.902344 395.488281 955.214844 397.003906 C 961.5 398.511719 967.847656 394.617188 969.359375 388.332031 C 972.886719 373.585938 974.972656 358.433594 975.472656 343.183594 C 1035.503906 346.375 1086.667969 390.71875 1097.421875 451.191406 C 1101.453125 473.96875 1099.46875 497.148438 1091.644531 518.652344 C 1080.457031 515.660156 1068.699219 514.082031 1056.574219 514.082031 C 1050.089844 514.082031 1044.816406 519.320312 1044.816406 525.839844 C 1044.816406 532.359375 1050.089844 537.597656 1056.574219 537.597656 C 1118.859375 537.597656 1169.550781 588.257812 1169.550781 650.574219 C 1169.550781 696.027344 1142.578125 735.265625 1103.808594 753.203125 C 1099.742188 755.082031 1095.542969 756.734375 1091.246094 758.109375 C 1080.328125 761.636719 1068.667969 763.554688 1056.574219 763.554688 C 1050.089844 763.554688 1044.816406 768.828125 1044.816406 775.3125 C 1044.816406 781.792969 1050.089844 787.066406 1056.574219 787.066406 C 1069.710938 787.066406 1082.410156 785.1875 1094.4375 781.726562 C 1098.4375 795.835938 1100.078125 810.71875 1099.210938 825.402344 C 1097.226562 859.066406 1082.578125 890.34375 1057.921875 913.386719 C 1032.351562 937.304688 999.027344 949.871094 963.992188 948.691406 C 928.988281 947.515625 896.53125 932.804688 872.613281 907.203125 C 868.179688 902.46875 860.753906 902.234375 856.015625 906.667969 C 851.246094 911.101562 851.007812 918.558594 855.441406 923.292969 C 883.664062 953.429688 921.925781 970.796875 963.214844 972.175781 C 964.960938 972.242188 966.742188 972.277344 968.488281 972.277344 C 1007.824219 972.277344 1045.121094 957.566406 1073.976562 930.585938 C 1103.070312 903.375 1120.367188 866.519531 1122.6875 826.777344 C 1123.761719 808.738281 1121.613281 790.460938 1116.441406 773.195312 C 1161.757812 750.988281 1193.066406 704.359375 1193.066406 650.574219 Z M 1193.058594 650.582031 " fill-opacity="1" fill-rule="nonzero"/></g><path fill="#3e5026" d="M 733.589844 594.707031 C 733.039062 584.671875 731.742188 574.730469 729.882812 564.925781 C 738.546875 445.03125 720.667969 399.390625 701.730469 351.101562 C 689.984375 321.15625 677.84375 290.183594 671.210938 238.136719 C 670.390625 231.695312 664.546875 227.136719 658.0625 227.957031 C 651.617188 228.777344 647.0625 234.664062 647.886719 241.109375 C 654.886719 296.046875 667.570312 328.394531 679.839844 359.683594 C 694.828125 397.898438 708.167969 431.996094 708.636719 502.882812 C 695.0625 476.300781 676.402344 452.289062 653.417969 432.601562 C 621.492188 405.261719 600.625 385.175781 601.414062 356.207031 C 601.589844 349.714844 596.472656 344.3125 589.980469 344.136719 C 583.476562 343.894531 578.082031 349.078125 577.90625 355.570312 C 576.757812 397.914062 609.363281 425.832031 638.125 450.46875 C 680.785156 487.003906 707.023438 540.050781 710.113281 596 L 711.121094 614.042969 C 712.769531 643.292969 714.480469 673.894531 715.390625 704.757812 C 675.335938 656.199219 658.855469 614.828125 663.707031 574.925781 C 664.492188 568.480469 659.902344 562.621094 653.457031 561.832031 C 646.980469 561.058594 641.148438 565.644531 640.363281 572.085938 C 636.027344 607.734375 645.546875 643.558594 670.023438 682.460938 C 662.878906 679.015625 655.527344 675.785156 648.085938 672.515625 C 601.761719 652.191406 549.265625 629.160156 512.6875 539.835938 C 510.226562 533.824219 503.347656 530.957031 497.351562 533.40625 C 491.339844 535.871094 488.460938 542.734375 490.925781 548.746094 C 531.113281 646.871094 590.734375 673.03125 638.636719 694.050781 C 675.136719 710.0625 703.96875 722.714844 715.628906 763.136719 C 715.710938 763.414062 715.832031 763.664062 715.929688 763.933594 C 715.597656 784.835938 714.59375 805.527344 712.703125 825.707031 C 690.976562 806.957031 658.515625 800.832031 624.632812 794.503906 C 549.101562 780.394531 463.5 764.402344 425.753906 621.984375 C 424.089844 615.707031 417.636719 611.96875 411.378906 613.632812 C 405.101562 615.296875 401.363281 621.734375 403.027344 628.011719 C 432.40625 738.871094 491.796875 780.824219 550.285156 800.792969 C 523.707031 810.699219 498.386719 826.761719 473.71875 849.371094 C 468.933594 853.761719 468.609375 861.195312 472.996094 865.984375 C 475.316406 868.511719 478.488281 869.792969 481.667969 869.792969 C 484.503906 869.792969 487.351562 868.769531 489.609375 866.699219 C 523.617188 835.523438 558.605469 818.125 596.566406 813.503906 C 596.964844 813.460938 597.328125 813.332031 597.714844 813.25 C 605.457031 814.835938 613.019531 816.25 620.316406 817.617188 C 662.171875 825.4375 695.460938 831.730469 708.734375 858.253906 C 707.792969 864.441406 706.773438 870.578125 705.605469 876.609375 C 687.917969 967.871094 646.453125 1021.382812 578.832031 1040.203125 C 572.574219 1041.945312 568.914062 1048.429688 570.65625 1054.6875 C 572.105469 1059.890625 576.832031 1063.292969 581.976562 1063.292969 C 583.023438 1063.292969 584.082031 1063.152344 585.136719 1062.859375 C 679.070312 1036.710938 717.84375 955.625 732.136719 859.773438 C 732.488281 858.59375 732.691406 857.371094 732.660156 856.121094 C 743.878906 777.191406 738.894531 688.667969 734.609375 612.703125 L 733.601562 594.6875 Z M 733.589844 594.707031 " fill-opacity="1" fill-rule="nonzero"/><path fill="#3e5026" d="M 1096.980469 628.027344 C 1098.644531 621.75 1094.902344 615.3125 1088.628906 613.648438 C 1082.347656 611.984375 1075.914062 615.730469 1074.257812 622 C 1036.511719 764.421875 950.910156 780.410156 875.378906 794.519531 C 841.496094 800.847656 809.035156 806.972656 787.308594 825.722656 C 785.417969 805.542969 784.414062 784.855469 784.082031 763.953125 C 784.179688 763.679688 784.304688 763.429688 784.386719 763.148438 C 796.046875 722.726562 824.878906 710.074219 861.378906 694.058594 C 909.28125 673.039062 968.902344 646.882812 1009.089844 548.753906 C 1011.554688 542.75 1008.675781 535.882812 1002.664062 533.417969 C 996.667969 530.957031 989.789062 533.828125 987.328125 539.84375 C 950.75 629.171875 898.246094 652.203125 851.929688 672.527344 C 844.488281 675.792969 837.132812 679.027344 829.988281 682.472656 C 854.464844 643.566406 863.984375 607.742188 859.648438 572.089844 C 858.863281 565.644531 853.019531 561.066406 846.554688 561.839844 C 840.105469 562.621094 835.519531 568.484375 836.300781 574.933594 C 841.15625 614.832031 824.671875 656.203125 784.617188 704.761719 C 785.53125 673.898438 787.242188 643.296875 788.890625 614.050781 L 789.898438 596.003906 C 792.980469 540.050781 819.21875 487.003906 861.886719 450.46875 C 890.648438 425.835938 923.246094 397.914062 922.105469 355.570312 C 921.925781 349.078125 916.410156 343.878906 910.03125 344.136719 C 903.535156 344.3125 898.421875 349.71875 898.59375 356.207031 C 899.382812 385.171875 878.511719 405.261719 846.59375 432.601562 C 823.609375 452.285156 804.953125 476.300781 791.371094 502.882812 C 791.847656 431.992188 805.1875 397.894531 820.171875 359.683594 C 832.441406 328.402344 845.128906 296.046875 852.125 241.109375 C 852.945312 234.664062 848.386719 228.777344 841.949219 227.957031 C 835.484375 227.144531 829.621094 231.695312 828.800781 238.136719 C 822.167969 290.179688 810.023438 321.148438 798.28125 351.101562 C 779.34375 399.390625 761.464844 445.03125 770.128906 564.925781 C 768.269531 574.730469 766.972656 584.671875 766.417969 594.707031 L 765.410156 612.722656 C 761.125 688.6875 756.140625 777.210938 767.363281 856.140625 C 767.332031 857.390625 767.53125 858.613281 767.882812 859.792969 C 782.175781 955.644531 820.949219 1036.734375 914.882812 1062.878906 C 915.941406 1063.171875 917 1063.316406 918.042969 1063.316406 C 923.191406 1063.316406 927.917969 1059.910156 929.367188 1054.707031 C 931.105469 1048.453125 927.445312 1041.964844 921.1875 1040.226562 C 853.570312 1021.402344 812.101562 967.886719 794.414062 876.628906 C 793.246094 870.597656 792.226562 864.460938 791.285156 858.277344 C 804.558594 831.746094 837.847656 825.453125 879.707031 817.636719 C 887.003906 816.277344 894.566406 814.863281 902.308594 813.269531 C 902.691406 813.355469 903.054688 813.480469 903.457031 813.527344 C 941.414062 818.144531 976.40625 835.546875 1010.410156 866.71875 C 1012.667969 868.789062 1015.515625 869.8125 1018.355469 869.8125 C 1021.535156 869.8125 1024.703125 868.527344 1027.023438 866.003906 C 1031.410156 861.214844 1031.089844 853.78125 1026.300781 849.390625 C 1001.632812 826.777344 976.3125 810.714844 949.734375 800.8125 C 1008.226562 780.847656 1067.613281 738.890625 1096.992188 628.035156 Z M 1096.980469 628.027344 " fill-opacity="1" fill-rule="nonzero"/><path fill="#3e5026" d="M 456.820312 456.253906 L 448.511719 443.449219 L 435.703125 451.757812 C 422.25 460.484375 418.425781 478.46875 427.152344 491.914062 L 435.464844 504.722656 L 448.269531 496.410156 C 461.722656 487.683594 465.546875 469.707031 456.820312 456.253906 Z M 456.820312 456.253906 " fill-opacity="1" fill-rule="nonzero"/><path fill="#3e5026" d="M 553.839844 873.628906 L 551.605469 894.453125 L 572.433594 896.6875 C 594.300781 899.03125 613.941406 883.203125 616.285156 861.332031 L 618.519531 840.507812 L 597.691406 838.273438 C 575.820312 835.929688 556.183594 851.757812 553.839844 873.628906 Z M 553.839844 873.628906 " fill-opacity="1" fill-rule="nonzero"/><path fill="#3e5026" d="M 603.847656 572.417969 L 593.089844 583.246094 C 581.792969 594.621094 581.847656 613.003906 593.226562 624.304688 L 604.058594 635.066406 L 614.816406 624.234375 C 626.117188 612.859375 626.054688 594.476562 614.679688 583.175781 Z M 603.847656 572.417969 " fill-opacity="1" fill-rule="nonzero"/><path fill="#3e5026" d="M 568.960938 516.054688 L 562.683594 502.140625 L 548.769531 508.417969 C 534.15625 515.015625 527.65625 532.210938 534.253906 546.824219 L 540.53125 560.738281 L 554.441406 554.453125 C 569.058594 547.859375 575.554688 530.664062 568.960938 516.050781 Z M 568.960938 516.054688 " fill-opacity="1" fill-rule="nonzero"/><path fill="#3e5026" d="M 494 634.824219 L 482.59375 644.972656 C 470.617188 655.632812 469.550781 673.988281 480.214844 685.964844 L 490.363281 697.367188 L 501.765625 687.21875 C 513.742188 676.558594 514.808594 658.203125 504.148438 646.226562 Z M 494 634.824219 " fill-opacity="1" fill-rule="nonzero"/><path fill="#3e5026" d="M 368.132812 654.957031 L 352.996094 656.917969 L 354.957031 672.054688 C 357.019531 687.957031 371.578125 699.175781 387.476562 697.117188 L 402.613281 695.15625 L 400.652344 680.019531 C 398.589844 664.121094 384.03125 652.898438 368.125 654.957031 Z M 368.132812 654.957031 " fill-opacity="1" fill-rule="nonzero"/><path fill="#3e5026" d="M 580.613281 768.539062 L 594.316406 775.269531 L 601.046875 761.566406 C 608.117188 747.171875 602.179688 729.777344 587.789062 722.710938 L 574.085938 715.980469 L 567.359375 729.683594 C 560.289062 744.078125 566.226562 761.472656 580.613281 768.539062 Z M 580.613281 768.539062 " fill-opacity="1" fill-rule="nonzero"/><path fill="#3e5026" d="M 450.816406 803.285156 L 441.988281 815.738281 L 454.441406 824.566406 C 467.523438 833.839844 485.640625 830.753906 494.914062 817.667969 L 503.742188 805.214844 L 491.289062 796.386719 C 478.207031 787.113281 460.089844 790.203125 450.816406 803.285156 Z M 450.816406 803.285156 " fill-opacity="1" fill-rule="nonzero"/><path fill="#3e5026" d="M 594.734375 301.472656 L 600.09375 315.761719 C 605.722656 330.777344 622.457031 338.386719 637.46875 332.757812 L 651.761719 327.398438 L 646.402344 313.105469 C 640.773438 298.089844 624.039062 290.480469 609.023438 296.109375 Z M 594.734375 301.472656 " fill-opacity="1" fill-rule="nonzero"/><path fill="#3e5026" d="M 725.28125 251.183594 L 719.769531 236.949219 L 705.535156 242.460938 C 690.582031 248.246094 683.152344 265.0625 688.9375 280.015625 L 694.449219 294.25 L 708.683594 288.742188 C 723.636719 282.953125 731.066406 266.136719 725.28125 251.183594 Z M 725.28125 251.183594 " fill-opacity="1" fill-rule="nonzero"/><path fill="#3e5026" d="M 1043.171875 456.253906 L 1051.484375 443.449219 L 1064.292969 451.757812 C 1077.742188 460.484375 1081.570312 478.46875 1072.84375 491.914062 L 1064.53125 504.722656 L 1051.726562 496.410156 C 1038.273438 487.683594 1034.449219 469.707031 1043.171875 456.253906 Z M 1043.171875 456.253906 " fill-opacity="1" fill-rule="nonzero"/><path fill="#3e5026" d="M 946.15625 873.628906 L 948.390625 894.453125 L 927.5625 896.6875 C 905.691406 899.03125 886.054688 883.203125 883.710938 861.332031 L 881.476562 840.507812 L 902.304688 838.273438 C 924.171875 835.929688 943.8125 851.757812 946.15625 873.628906 Z M 946.15625 873.628906 " fill-opacity="1" fill-rule="nonzero"/><path fill="#3e5026" d="M 896.148438 572.417969 L 906.90625 583.246094 C 918.203125 594.621094 918.148438 613.003906 906.769531 624.304688 L 895.9375 635.066406 L 885.179688 624.234375 C 873.878906 612.859375 873.941406 594.476562 885.316406 583.175781 Z M 896.148438 572.417969 " fill-opacity="1" fill-rule="nonzero"/><path fill="#3e5026" d="M 931.035156 516.054688 L 937.3125 502.140625 L 951.226562 508.417969 C 965.839844 515.015625 972.339844 532.210938 965.742188 546.824219 L 959.464844 560.738281 L 945.550781 554.453125 C 930.9375 547.859375 924.441406 530.664062 931.035156 516.050781 Z M 931.035156 516.054688 " fill-opacity="1" fill-rule="nonzero"/><path fill="#3e5026" d="M 1005.996094 634.824219 L 1017.402344 644.972656 C 1029.378906 655.632812 1030.445312 673.988281 1019.78125 685.964844 L 1009.632812 697.367188 L 998.230469 687.21875 C 986.253906 676.558594 985.1875 658.203125 995.847656 646.226562 Z M 1005.996094 634.824219 " fill-opacity="1" fill-rule="nonzero"/><path fill="#3e5026" d="M 1131.863281 654.957031 L 1147 656.917969 L 1145.039062 672.054688 C 1142.976562 687.957031 1128.417969 699.175781 1112.519531 697.117188 L 1097.382812 695.15625 L 1099.34375 680.019531 C 1101.40625 664.121094 1115.964844 652.898438 1131.871094 654.957031 Z M 1131.863281 654.957031 " fill-opacity="1" fill-rule="nonzero"/><path fill="#3e5026" d="M 919.378906 768.539062 L 905.675781 775.269531 L 898.949219 761.566406 C 891.878906 747.171875 897.816406 729.777344 912.207031 722.710938 L 925.910156 715.980469 L 932.636719 729.683594 C 939.703125 744.078125 933.769531 761.472656 919.378906 768.539062 Z M 919.378906 768.539062 " fill-opacity="1" fill-rule="nonzero"/><path fill="#3e5026" d="M 1049.179688 803.285156 L 1058.007812 815.738281 L 1045.554688 824.566406 C 1032.472656 833.839844 1014.355469 830.753906 1005.082031 817.667969 L 996.253906 805.214844 L 1008.707031 796.386719 C 1021.789062 787.113281 1039.90625 790.203125 1049.179688 803.285156 Z M 1049.179688 803.285156 " fill-opacity="1" fill-rule="nonzero"/><path fill="#3e5026" d="M 906.738281 288.269531 L 904.417969 303.355469 C 901.980469 319.203125 887.15625 330.074219 871.308594 327.636719 L 856.214844 325.316406 L 858.535156 310.230469 C 860.972656 294.382812 875.796875 283.511719 891.648438 285.949219 L 906.734375 288.269531 Z M 906.738281 288.269531 " fill-opacity="1" fill-rule="nonzero"/><path fill="#3e5026" d="M 749.296875 319.183594 L 754.804688 304.949219 L 769.042969 310.457031 C 783.996094 316.242188 791.425781 333.058594 785.636719 348.011719 L 780.128906 362.25 L 765.890625 356.738281 C 750.941406 350.953125 743.511719 334.136719 749.296875 319.183594 Z M 749.296875 319.183594 " fill-opacity="1" fill-rule="nonzero"/><g clip-path="url(#89826b9e04)"><path fill="#3e5026" d="M 403.125 1118.847656 C 362.519531 1076.148438 325.3125 1032.960938 298.664062 988.277344 C 295.472656 982.925781 295.160156 976.339844 297.945312 970.761719 C 302.011719 962.636719 311.457031 958.785156 320.054688 961.71875 C 363.507812 976.554688 407.167969 1018.257812 455.269531 1071.957031 C 648.433594 1124.09375 786.203125 1202.757812 697.152344 1390.082031 C 610.390625 1195.527344 321.839844 1326.984375 244.5 986.507812 C 240.585938 959 242.421875 884.117188 244.164062 810 C 244.488281 796.371094 260.894531 789.335938 270.734375 798.769531 C 273.859375 801.757812 276.761719 805.964844 279.414062 811.589844 C 280.117188 813.082031 280.53125 814.695312 280.71875 816.328125 L 295.433594 944.953125 C 295.652344 946.871094 295.09375 948.789062 293.886719 950.296875 L 284.769531 961.628906 C 281.464844 965.738281 280.640625 971.3125 282.609375 976.210938 C 303.855469 1029.058594 352.742188 1084.464844 403.132812 1118.84375 Z M 403.125 1118.847656 " fill-opacity="1" fill-rule="nonzero"/></g><g clip-path="url(#770464ee0c)"><path fill="#3e5026" d="M 1096.871094 1118.847656 C 1137.476562 1076.148438 1174.683594 1032.960938 1201.332031 988.277344 C 1204.523438 982.925781 1204.835938 976.339844 1202.050781 970.761719 C 1197.984375 962.636719 1188.539062 958.785156 1179.941406 961.71875 C 1136.488281 976.554688 1092.828125 1018.257812 1044.726562 1071.957031 C 851.5625 1124.09375 713.792969 1202.757812 802.84375 1390.082031 C 889.605469 1195.527344 1178.15625 1326.984375 1255.492188 986.507812 C 1259.410156 959 1257.574219 884.117188 1255.832031 810 C 1255.507812 796.371094 1239.101562 789.335938 1229.261719 798.769531 C 1226.136719 801.757812 1223.234375 805.964844 1220.582031 811.589844 C 1219.878906 813.082031 1219.464844 814.695312 1219.273438 816.328125 L 1204.5625 944.953125 C 1204.34375 946.871094 1204.902344 948.789062 1206.109375 950.296875 L 1215.226562 961.628906 C 1218.53125 965.738281 1219.355469 971.3125 1217.386719 976.210938 C 1196.140625 1029.058594 1147.253906 1084.464844 1096.863281 1118.84375 Z M 1096.871094 1118.847656 " fill-opacity="1" fill-rule="nonzero"/></g></svg>