<svg xmlns="http://www.w3.org/2000/svg" xmlns:xlink="http://www.w3.org/1999/xlink" width="2000" zoomAndPan="magnify" viewBox="0 0 1500 1499.999933" height="2000" preserveAspectRatio="xMidYMid meet" version="1.0"><defs><g/><clipPath id="a6c416789c"><rect x="0" width="1061" y="0" height="501"/></clipPath><clipPath id="1710f897b2"><path d="M 539 449.933594 L 961 449.933594 L 961 861 L 539 861 Z M 539 449.933594 " clip-rule="nonzero"/></clipPath><clipPath id="496c2384d9"><path d="M 508 775 L 739 775 L 739 1058.933594 L 508 1058.933594 Z M 508 775 " clip-rule="nonzero"/></clipPath><clipPath id="13dc392ca1"><path d="M 761 775 L 992 775 L 992 1058.933594 L 761 1058.933594 Z M 761 775 " clip-rule="nonzero"/></clipPath></defs><g transform="matrix(1, 0, 0, 1, 244, 246)"><g clip-path="url(#a6c416789c)"><g fill="#3e5026" fill-opacity="1"><g transform="translate(112.950937, 495.001275)"><g><path d="M -74.796875 -73.484375 C -78.679688 -67.609375 -81.203125 -61.523438 -82.359375 -55.234375 C -84.703125 -42.484375 -81.15625 -35.238281 -71.71875 -33.5 C -67.625 -32.75 -63.539062 -33.488281 -59.46875 -35.71875 C -55.394531 -37.957031 -51.601562 -40.875 -48.09375 -44.46875 C -44.59375 -48.0625 -41.019531 -51.644531 -37.375 -55.21875 C -33.738281 -58.800781 -29.648438 -61.660156 -25.109375 -63.796875 C -20.566406 -65.941406 -15.9375 -66.582031 -11.21875 -65.71875 C -3.28125 -64.257812 2.226562 -60.492188 5.3125 -54.421875 C 8.394531 -48.347656 9.070312 -40.613281 7.34375 -31.21875 C 5.625 -21.832031 1.753906 -14.257812 -4.265625 -8.5 L -8.40625 -12.53125 C -3.144531 -18.050781 0.171875 -24.566406 1.546875 -32.078125 C 2.929688 -39.585938 2.488281 -45.628906 0.21875 -50.203125 C -2.050781 -54.773438 -6.023438 -57.582031 -11.703125 -58.625 C -15.628906 -59.34375 -19.628906 -58.585938 -23.703125 -56.359375 C -27.773438 -54.140625 -31.609375 -51.234375 -35.203125 -47.640625 C -38.796875 -44.054688 -42.453125 -40.484375 -46.171875 -36.921875 C -49.898438 -33.367188 -54.082031 -30.523438 -58.71875 -28.390625 C -63.351562 -26.265625 -68.023438 -25.632812 -72.734375 -26.5 C -78.953125 -27.644531 -83.445312 -30.84375 -86.21875 -36.09375 C -89 -41.34375 -89.671875 -47.875 -88.234375 -55.6875 C -86.796875 -63.5 -83.882812 -70.488281 -79.5 -76.65625 Z M -74.796875 -73.484375 "/></g></g></g><g fill="#3e5026" fill-opacity="1"><g transform="translate(126.234295, 413.773726)"><g><path d="M -0.96875 -28.203125 C -13.289062 -24.140625 -25.75 -25 -38.34375 -30.78125 C -50.9375 -36.5625 -59.6875 -45.4375 -64.59375 -57.40625 C -69.5 -69.382812 -69.132812 -81.507812 -63.5 -93.78125 C -57.875 -106.050781 -48.910156 -114.25 -36.609375 -118.375 C -24.316406 -122.507812 -11.875 -121.6875 0.71875 -115.90625 C 13.3125 -110.125 22.070312 -101.210938 27 -89.171875 C 31.9375 -77.140625 31.585938 -64.988281 25.953125 -52.71875 C 20.328125 -40.445312 11.351562 -32.273438 -0.96875 -28.203125 Z M -58.875 -60 C -54.40625 -49.84375 -46.597656 -42.207031 -35.453125 -37.09375 C -24.316406 -31.988281 -13.40625 -31.0625 -2.71875 -34.3125 C 7.957031 -37.570312 15.75 -44.546875 20.65625 -55.234375 C 25.5625 -65.929688 25.765625 -76.390625 21.265625 -86.609375 C 16.773438 -96.835938 8.960938 -104.503906 -2.171875 -109.609375 C -13.316406 -114.722656 -24.207031 -115.640625 -34.84375 -112.359375 C -45.476562 -109.085938 -53.257812 -102.082031 -58.1875 -91.34375 C -63.113281 -80.613281 -63.34375 -70.164062 -58.875 -60 Z M -58.875 -60 "/></g></g></g><g fill="#3e5026" fill-opacity="1"><g transform="translate(180.769914, 300.666304)"><g><path d="M 41.90625 -46.546875 C 32.90625 -36.015625 21.570312 -30.039062 7.90625 -28.625 C -5.75 -27.21875 -17.851562 -31.03125 -28.40625 -40.0625 C -38.96875 -49.09375 -45.007812 -59.988281 -46.53125 -72.75 C -48.0625 -85.507812 -44.410156 -97.054688 -35.578125 -107.390625 C -28.648438 -115.484375 -20.289062 -122.53125 -10.5 -128.53125 L -7.578125 -123.75 C -16.929688 -117.726562 -24.78125 -111.007812 -31.125 -103.59375 C -38.6875 -94.75 -41.691406 -84.8125 -40.140625 -73.78125 C -38.585938 -62.75 -33.222656 -53.304688 -24.046875 -45.453125 C -14.867188 -37.609375 -4.273438 -34.1875 7.734375 -35.1875 C 19.753906 -36.1875 29.660156 -41.238281 37.453125 -50.34375 C 44.265625 -58.3125 48.9375 -66.242188 51.46875 -74.140625 L 56.21875 -72.6875 C 55.5 -68.851562 53.769531 -64.515625 51.03125 -59.671875 C 48.300781 -54.835938 45.257812 -50.460938 41.90625 -46.546875 Z M 41.90625 -46.546875 "/></g></g></g><g fill="#3e5026" fill-opacity="1"><g transform="translate(250.54783, 218.875549)"><g><path d="M 14.03125 -24.5 C 1.414062 -27.53125 -8.722656 -34.816406 -16.390625 -46.359375 C -24.054688 -57.898438 -26.820312 -70.054688 -24.6875 -82.828125 C -22.550781 -95.597656 -15.859375 -105.710938 -4.609375 -113.171875 C 6.628906 -120.640625 18.5625 -122.890625 31.1875 -119.921875 C 43.820312 -116.953125 53.972656 -109.695312 61.640625 -98.15625 C 69.304688 -86.613281 72.0625 -74.425781 69.90625 -61.59375 C 67.757812 -48.769531 61.0625 -38.625 49.8125 -31.15625 C 38.570312 -23.695312 26.644531 -21.476562 14.03125 -24.5 Z M -18.453125 -82 C -20.003906 -71.007812 -17.390625 -60.410156 -10.609375 -50.203125 C -3.835938 -39.992188 4.941406 -33.457031 15.734375 -30.59375 C 26.535156 -27.738281 36.835938 -29.566406 46.640625 -36.078125 C 56.441406 -42.585938 62.125 -51.367188 63.6875 -62.421875 C 65.25 -73.484375 62.640625 -84.117188 55.859375 -94.328125 C 49.085938 -104.535156 40.3125 -111.046875 29.53125 -113.859375 C 18.757812 -116.679688 8.457031 -114.820312 -1.375 -108.28125 C -11.21875 -101.75 -16.910156 -92.988281 -18.453125 -82 Z M -18.453125 -82 "/></g></g></g><g fill="#3e5026" fill-opacity="1"><g transform="translate(357.138787, 151.82593)"><g><path d="M 16.671875 -5.546875 L -13.296875 -95.546875 C -5.484375 -98.796875 1.117188 -101.320312 6.515625 -103.125 C 15.109375 -105.988281 22.921875 -106.132812 29.953125 -103.5625 C 36.992188 -100.988281 41.863281 -95.65625 44.5625 -87.5625 C 46.382812 -82.082031 46.476562 -76.445312 44.84375 -70.65625 C 43.21875 -64.875 40.878906 -59.9375 37.828125 -55.84375 C 42.390625 -52.59375 47.957031 -48.757812 54.53125 -44.34375 C 61.101562 -39.925781 65.316406 -37.1875 67.171875 -36.125 C 74.128906 -32.363281 80.972656 -31.179688 87.703125 -32.578125 L 88.9375 -28.484375 C 83.769531 -26.859375 79.335938 -26.25 75.640625 -26.65625 C 71.953125 -27.070312 68.148438 -28.3125 64.234375 -30.375 C 60.316406 -32.4375 49.945312 -39.460938 33.125 -51.453125 C 24.863281 -48.703125 17.28125 -46.46875 10.375 -44.75 L 22.75 -7.578125 Z M 27.765625 -55.3125 C 31.472656 -56.550781 34.617188 -60.3125 37.203125 -66.59375 C 39.796875 -72.882812 40.019531 -79.25 37.875 -85.6875 C 35.726562 -92.132812 31.929688 -96.300781 26.484375 -98.1875 C 21.035156 -100.082031 14.734375 -99.835938 7.578125 -97.453125 C 3.773438 -96.179688 -0.59375 -94.535156 -5.53125 -92.515625 L 8.734375 -49.671875 C 15.609375 -51.492188 21.953125 -53.375 27.765625 -55.3125 Z M 27.765625 -55.3125 "/></g></g></g><g fill="#3e5026" fill-opacity="1"><g transform="translate(449.83494, 122.144149)"><g><path d="M 17.5 -1.578125 L 9.03125 -96.0625 C 17.375 -97.414062 24.378906 -98.347656 30.046875 -98.859375 C 39.078125 -99.660156 46.71875 -98.003906 52.96875 -93.890625 C 59.21875 -89.773438 62.722656 -83.46875 63.484375 -74.96875 C 64.003906 -69.226562 62.804688 -63.726562 59.890625 -58.46875 C 56.972656 -53.207031 53.5625 -48.929688 49.65625 -45.640625 C 53.34375 -41.421875 57.875 -36.410156 63.25 -30.609375 C 68.632812 -24.804688 72.109375 -21.179688 73.671875 -19.734375 C 79.585938 -14.453125 85.984375 -11.722656 92.859375 -11.546875 L 93.109375 -7.28125 C 87.703125 -6.882812 83.25 -7.3125 79.75 -8.5625 C 76.257812 -9.8125 72.84375 -11.890625 69.5 -14.796875 C 66.15625 -17.710938 57.679688 -26.9375 44.078125 -42.46875 C 35.410156 -41.6875 27.515625 -41.25 20.390625 -41.15625 L 23.890625 -2.140625 Z M 39.75 -47.453125 C 43.632812 -47.796875 47.5625 -50.726562 51.53125 -56.25 C 55.5 -61.78125 57.175781 -67.925781 56.5625 -74.6875 C 55.957031 -81.457031 53.21875 -86.382812 48.34375 -89.46875 C 43.476562 -92.5625 37.285156 -93.769531 29.765625 -93.09375 C 25.785156 -92.738281 21.160156 -92.140625 15.890625 -91.296875 L 19.921875 -46.328125 C 27.035156 -46.523438 33.644531 -46.898438 39.75 -47.453125 Z M 39.75 -47.453125 "/></g></g></g><g fill="#3e5026" fill-opacity="1"><g transform="translate(545.810113, 112.704005)"><g><path d="M 27.046875 -8.0625 C 20.003906 -18.957031 17.691406 -31.222656 20.109375 -44.859375 C 22.523438 -58.503906 28.90625 -69.210938 39.25 -76.984375 C 49.601562 -84.765625 61.425781 -87.476562 74.71875 -85.125 C 88.019531 -82.769531 98.21875 -76.160156 105.3125 -65.296875 C 112.414062 -54.441406 114.757812 -42.191406 112.34375 -28.546875 C 109.925781 -14.910156 103.515625 -4.191406 93.109375 3.609375 C 82.710938 11.421875 70.863281 14.148438 57.5625 11.796875 C 44.269531 9.441406 34.097656 2.820312 27.046875 -8.0625 Z M 43.203125 -72.09375 C 34.492188 -65.207031 29.070312 -55.726562 26.9375 -43.65625 C 24.800781 -31.59375 26.660156 -20.804688 32.515625 -11.296875 C 38.367188 -1.785156 47.085938 3.992188 58.671875 6.046875 C 70.253906 8.097656 80.421875 5.660156 89.171875 -1.265625 C 97.929688 -8.191406 103.378906 -17.6875 105.515625 -29.75 C 107.648438 -41.820312 105.789062 -52.59375 99.9375 -62.0625 C 94.082031 -71.53125 85.335938 -77.289062 73.703125 -79.34375 C 62.078125 -81.40625 51.910156 -78.988281 43.203125 -72.09375 Z M 43.203125 -72.09375 "/></g></g></g><g fill="#3e5026" fill-opacity="1"><g transform="translate(670.262491, 139.74613)"><g/></g></g><g fill="#3e5026" fill-opacity="1"><g transform="translate(725.608252, 162.983787)"><g><path d="M 14.828125 9.4375 L 65.984375 -70.90625 L 71.390625 -67.46875 L 23.375 7.9375 L 60.34375 31.484375 L 57.203125 36.421875 Z M 14.828125 9.4375 "/></g></g></g><g fill="#3e5026" fill-opacity="1"><g transform="translate(794.362974, 209.348222)"><g><path d="M 13.09375 11.734375 L 76.640625 -59.21875 L 81.40625 -54.953125 L 17.859375 16 Z M 13.09375 11.734375 "/></g></g></g><g fill="#3e5026" fill-opacity="1"><g transform="translate(835.499534, 241.488884)"><g><path d="M 40.28125 48.1875 L 38.203125 45.265625 L 77.03125 -16.5 C 79.144531 -19.945312 81.078125 -22.894531 82.828125 -25.34375 L 73.796875 -20.5625 L 8.71875 12.265625 L 4.9375 6.953125 L 92.34375 -35.859375 L 94.5 -32.828125 L 54.140625 32.296875 C 52.335938 35.421875 50.503906 38.191406 48.640625 40.609375 C 49.585938 40.265625 52.882812 39.613281 58.53125 38.65625 L 135.390625 24.734375 L 137.46875 27.65625 L 67.59375 95.140625 L 63.734375 89.6875 L 116.6875 39.3125 C 119.957031 36.125 122.535156 33.859375 124.421875 32.515625 C 124.304688 32.492188 123.847656 32.570312 123.046875 32.75 C 122.253906 32.9375 120.929688 33.222656 119.078125 33.609375 C 117.234375 34.003906 115.316406 34.414062 113.328125 34.84375 Z M 40.28125 48.1875 "/></g></g></g><g fill="#3e5026" fill-opacity="1"><g transform="translate(909.636871, 352.080688)"><g><path d="M 38.734375 10.171875 L 3.015625 8.40625 L 0.71875 2 L 104.546875 7.390625 L 105.796875 10.890625 L 29.078125 81.125 L 26.65625 74.359375 L 53.125 50.3125 Z M 95.015625 12.375 C 94.890625 12.3125 94.320312 12.320312 93.3125 12.40625 C 89.300781 12.519531 85.84375 12.476562 82.9375 12.28125 L 44.640625 10.46875 L 57.5 46.328125 L 85.78125 20.609375 C 91.09375 15.421875 94.171875 12.675781 95.015625 12.375 Z M 95.015625 12.375 "/></g></g></g><g fill="#3e5026" fill-opacity="1"><g transform="translate(940.37565, 446.646784)"><g/></g></g></g></g><g fill="#3e5026" fill-opacity="1"><g transform="translate(434.86477, 1143.57755)"><g><path d="M 56.203125 -13.671875 L 53.390625 -10.109375 L 42.203125 -18.984375 L 16.71875 13.21875 L 12.515625 9.90625 L 38 -22.296875 L 26.8125 -31.15625 L 29.625 -34.71875 Z M 56.203125 -13.671875 "/></g></g></g><g fill="#3e5026" fill-opacity="1"><g transform="translate(496.880064, 1188.70192)"><g><path d="M 21.1875 -12.78125 L 12.875 2.109375 L 33.15625 13.4375 L 30.984375 17.3125 L 6.015625 3.359375 L 28.265625 -36.453125 L 52.796875 -22.734375 L 50.640625 -18.859375 L 30.796875 -29.953125 L 23.34375 -16.640625 L 40.84375 -6.859375 L 38.6875 -3 Z M 21.1875 -12.78125 "/></g></g></g><g fill="#3e5026" fill-opacity="1"><g transform="translate(566.53531, 1224.060348)"><g><path d="M 6.484375 2.328125 L 21.890625 -40.609375 L 37.484375 -35.015625 C 40.367188 -33.984375 42.613281 -32.640625 44.21875 -30.984375 C 45.832031 -29.328125 46.816406 -27.457031 47.171875 -25.375 C 47.535156 -23.300781 47.289062 -21.078125 46.4375 -18.703125 C 45.488281 -16.046875 44.035156 -14.085938 42.078125 -12.828125 C 40.117188 -11.578125 37.582031 -11.023438 34.46875 -11.171875 L 34.25 -10.546875 C 35.445312 -9.492188 36.269531 -8.222656 36.71875 -6.734375 C 37.175781 -5.253906 37.363281 -3.210938 37.28125 -0.609375 L 36.796875 13.203125 L 31.59375 11.328125 L 32.015625 -3.328125 C 32.066406 -5.054688 31.914062 -6.476562 31.5625 -7.59375 C 31.207031 -8.71875 30.585938 -9.660156 29.703125 -10.421875 C 28.828125 -11.179688 27.613281 -11.835938 26.0625 -12.390625 L 18.453125 -15.125 L 11.546875 4.140625 Z M 30.40625 -15.671875 C 33.09375 -14.703125 35.3125 -14.601562 37.0625 -15.375 C 38.820312 -16.15625 40.160156 -17.816406 41.078125 -20.359375 C 41.992188 -22.910156 42.015625 -25.039062 41.140625 -26.75 C 40.273438 -28.46875 38.5 -29.8125 35.8125 -30.78125 L 25.40625 -34.515625 L 20 -19.40625 Z M 30.40625 -15.671875 "/></g></g></g><g fill="#3e5026" fill-opacity="1"><g transform="translate(644.728613, 1248.55238)"><g><path d="M 40.4375 7.125 L 34.78125 6.125 L 32.8125 -6.921875 L 13.671875 -10.296875 L 7.3125 1.28125 L 1.78125 0.3125 L 25.375 -41.84375 L 32.6875 -40.5625 Z M 27.640625 -35.84375 L 15.921875 -14.453125 L 32.078125 -11.59375 L 28.40625 -35.703125 Z M 27.640625 -35.84375 "/></g></g></g><g fill="#3e5026" fill-opacity="1"><g transform="translate(726.540192, 1259.504381)"><g><path d="M 23.4375 -45.484375 C 26.582031 -45.472656 29.273438 -44.894531 31.515625 -43.75 C 33.753906 -42.613281 35.457031 -41 36.625 -38.90625 C 37.789062 -36.8125 38.367188 -34.351562 38.359375 -31.53125 C 38.335938 -28.695312 37.734375 -26.242188 36.546875 -24.171875 C 35.359375 -22.097656 33.640625 -20.5 31.390625 -19.375 C 29.140625 -18.257812 26.441406 -17.707031 23.296875 -17.71875 L 12.359375 -17.78125 L 12.265625 0.0625 L 6.890625 0.03125 L 7.125 -45.578125 Z M 23.15625 -22.3125 C 29.5 -22.28125 32.691406 -25.363281 32.734375 -31.5625 C 32.765625 -37.78125 29.609375 -40.90625 23.265625 -40.9375 L 12.484375 -41 L 12.375 -22.375 Z M 23.15625 -22.3125 "/></g></g></g><g fill="#3e5026" fill-opacity="1"><g transform="translate(807.626533, 1256.544027)"><g><path d="M 8.703125 -23.1875 L 11.40625 -6.328125 L 34.34375 -10 L 35.046875 -5.625 L 6.796875 -1.09375 L -0.4375 -46.125 L 27.328125 -50.578125 L 28.03125 -46.203125 L 5.578125 -42.609375 L 8 -27.546875 L 27.796875 -30.71875 L 28.5 -26.359375 Z M 8.703125 -23.1875 "/></g></g></g><g fill="#3e5026" fill-opacity="1"><g transform="translate(884.354322, 1241.148482)"><g><path d="M 22.46875 -6.984375 C 17.175781 -5.171875 12.710938 -5.144531 9.078125 -6.90625 C 5.441406 -8.664062 2.722656 -12.179688 0.921875 -17.453125 L -8.59375 -45.265625 L -3.546875 -47 L 5.953125 -19.25 C 7.242188 -15.46875 9.117188 -12.941406 11.578125 -11.671875 C 14.046875 -10.410156 17.140625 -10.414062 20.859375 -11.6875 C 28.222656 -14.207031 30.613281 -19.242188 28.03125 -26.796875 L 18.53125 -54.546875 L 23.578125 -56.28125 L 33.09375 -28.46875 C 34.894531 -23.195312 34.898438 -18.753906 33.109375 -15.140625 C 31.316406 -11.523438 27.769531 -8.804688 22.46875 -6.984375 Z M 22.46875 -6.984375 "/></g></g></g><g fill="#3e5026" fill-opacity="1"><g transform="translate(965.053746, 1209.546207)"><g><path d="M 9.4375 -57.078125 L 11.609375 -53.09375 L -0.921875 -46.265625 L 18.71875 -10.203125 L 14.015625 -7.640625 L -5.625 -43.703125 L -18.15625 -36.875 L -20.328125 -40.859375 Z M 9.4375 -57.078125 "/></g></g></g><g fill="#3e5026" fill-opacity="1"><g transform="translate(1031.014055, 1170.16436)"><g><path d="M 32.359375 -25.28125 L 27.828125 -21.75 L 16.8125 -29.015625 L 1.5 -17.046875 L 5.84375 -4.5625 L 1.421875 -1.109375 L -14.125 -46.84375 L -8.265625 -51.421875 Z M -8.140625 -44.53125 L -0.09375 -21.5 L 12.84375 -31.609375 L -7.53125 -45 Z M -8.140625 -44.53125 "/></g></g></g><g clip-path="url(#1710f897b2)"><path fill="#3e5026" d="M 960.816406 707.203125 C 960.816406 681.101562 945.34375 658.546875 923.074219 648.25 C 927.46875 636.167969 928.589844 623.171875 926.320312 610.382812 C 920.261719 576.171875 891.136719 551.15625 857.074219 549.734375 C 853.1875 494.058594 806.636719 449.9375 749.988281 449.9375 C 693.335938 449.9375 646.820312 494.039062 642.917969 549.71875 C 608.839844 551.15625 579.746094 576.175781 573.65625 610.382812 C 571.382812 623.167969 572.503906 636.167969 576.902344 648.25 C 554.648438 658.546875 539.175781 681.101562 539.175781 707.203125 C 539.175781 733.308594 554.058594 754.984375 575.636719 765.550781 C 573.175781 773.765625 572.152344 782.464844 572.648438 791.046875 C 573.765625 809.957031 582 827.492188 595.839844 840.441406 C 609.574219 853.292969 627.316406 860.28125 646.035156 860.28125 C 646.863281 860.28125 647.710938 860.261719 648.542969 860.230469 C 668.191406 859.574219 686.394531 851.3125 699.824219 836.972656 C 701.933594 834.71875 701.804688 831.171875 699.554688 829.058594 C 697.300781 826.949219 693.75 827.0625 691.640625 829.316406 C 680.257812 841.496094 664.832031 848.5 648.175781 849.058594 C 631.550781 849.632812 615.644531 843.65625 603.480469 832.257812 C 591.746094 821.289062 584.761719 806.410156 583.816406 790.390625 C 583.417969 783.40625 584.1875 776.324219 586.089844 769.609375 C 591.8125 771.257812 597.871094 772.152344 604.121094 772.152344 C 607.203125 772.152344 609.714844 769.640625 609.714844 766.558594 C 609.714844 763.472656 607.203125 760.964844 604.121094 760.964844 C 598.363281 760.964844 592.800781 760.050781 587.605469 758.371094 C 585.558594 757.71875 583.578125 756.933594 581.660156 756.039062 C 563.199219 747.519531 550.363281 728.832031 550.363281 707.203125 C 550.363281 677.550781 574.464844 653.445312 604.121094 653.445312 C 607.203125 653.445312 609.714844 650.9375 609.714844 647.851562 C 609.714844 644.765625 607.203125 642.257812 604.121094 642.257812 C 598.347656 642.257812 592.738281 643.007812 587.414062 644.429688 C 583.6875 634.183594 582.761719 623.171875 584.679688 612.332031 C 589.796875 583.558594 614.125 562.441406 642.707031 560.941406 C 642.949219 568.195312 643.921875 575.40625 645.601562 582.421875 C 646.226562 584.980469 648.511719 586.707031 651.039062 586.707031 C 651.46875 586.707031 651.917969 586.65625 652.347656 586.546875 C 655.355469 585.828125 657.207031 582.804688 656.488281 579.796875 C 654.875 573.050781 653.980469 566.082031 653.867188 559.082031 C 653.835938 558.492188 653.835938 557.882812 653.835938 557.292969 C 653.835938 555.453125 653.882812 553.613281 653.996094 551.808594 C 656.84375 501.328125 698.816406 461.125 749.988281 461.125 C 801.160156 461.125 843.148438 501.328125 845.996094 551.808594 C 846.109375 553.613281 846.15625 555.453125 846.15625 557.292969 C 846.15625 557.882812 846.15625 558.492188 846.125 559.082031 C 846.011719 566.085938 845.121094 573.054688 843.503906 579.796875 C 842.785156 582.804688 844.640625 585.824219 847.644531 586.546875 C 850.632812 587.265625 853.65625 585.410156 854.375 582.421875 C 856.050781 575.402344 857.042969 568.191406 857.28125 560.9375 C 885.847656 562.457031 910.191406 583.554688 915.308594 612.328125 C 917.226562 623.167969 916.285156 634.199219 912.5625 644.429688 C 907.238281 643.003906 901.644531 642.253906 895.871094 642.253906 C 892.789062 642.253906 890.277344 644.746094 890.277344 647.851562 C 890.277344 650.953125 892.789062 653.445312 895.871094 653.445312 C 925.507812 653.445312 949.632812 677.550781 949.632812 707.203125 C 949.632812 728.828125 936.796875 747.5 918.347656 756.035156 C 916.414062 756.929688 914.414062 757.714844 912.371094 758.371094 C 907.175781 760.050781 901.628906 760.960938 895.871094 760.960938 C 892.789062 760.960938 890.277344 763.46875 890.277344 766.554688 C 890.277344 769.640625 892.789062 772.148438 895.871094 772.148438 C 902.121094 772.148438 908.164062 771.253906 913.890625 769.609375 C 915.792969 776.320312 916.574219 783.402344 916.160156 790.390625 C 915.21875 806.40625 908.246094 821.289062 896.515625 832.253906 C 884.347656 843.636719 868.492188 849.617188 851.820312 849.054688 C 835.164062 848.496094 819.71875 841.496094 808.339844 829.3125 C 806.230469 827.058594 802.695312 826.949219 800.441406 829.058594 C 798.171875 831.167969 798.058594 834.714844 800.167969 836.96875 C 813.597656 851.308594 831.804688 859.574219 851.449219 860.230469 C 852.28125 860.261719 853.128906 860.277344 853.960938 860.277344 C 872.675781 860.277344 890.421875 853.277344 904.152344 840.4375 C 917.996094 827.492188 926.226562 809.957031 927.332031 791.042969 C 927.84375 782.460938 926.820312 773.765625 924.359375 765.546875 C 945.921875 754.980469 960.820312 732.792969 960.820312 707.203125 Z M 960.816406 707.203125 " fill-opacity="1" fill-rule="nonzero"/></g><path fill="#3e5026" d="M 742.1875 680.621094 C 741.925781 675.84375 741.308594 671.113281 740.425781 666.449219 C 744.546875 609.398438 736.039062 587.679688 727.027344 564.703125 C 721.4375 550.453125 715.660156 535.71875 712.507812 510.953125 C 712.117188 507.886719 709.335938 505.71875 706.25 506.109375 C 703.183594 506.5 701.015625 509.300781 701.40625 512.367188 C 704.738281 538.507812 710.773438 553.898438 716.613281 568.789062 C 723.742188 586.972656 730.089844 603.195312 730.316406 636.925781 C 723.855469 624.277344 714.976562 612.851562 704.039062 603.484375 C 688.847656 590.476562 678.921875 580.917969 679.296875 567.132812 C 679.378906 564.042969 676.945312 561.472656 673.855469 561.390625 C 670.761719 561.277344 668.191406 563.742188 668.109375 566.832031 C 667.5625 586.980469 683.078125 600.261719 696.761719 611.984375 C 717.0625 629.371094 729.546875 654.609375 731.015625 681.234375 L 731.496094 689.820312 C 732.28125 703.738281 733.09375 718.296875 733.527344 732.984375 C 714.46875 709.878906 706.625 690.191406 708.9375 671.207031 C 709.308594 668.140625 707.125 665.351562 704.058594 664.976562 C 700.976562 664.609375 698.199219 666.789062 697.828125 669.855469 C 695.765625 686.816406 700.292969 703.863281 711.941406 722.375 C 708.542969 720.734375 705.042969 719.199219 701.503906 717.644531 C 679.460938 707.972656 654.480469 697.011719 637.078125 654.507812 C 635.90625 651.648438 632.632812 650.285156 629.78125 651.449219 C 626.917969 652.621094 625.550781 655.886719 626.722656 658.75 C 645.84375 705.441406 674.210938 717.886719 697.007812 727.890625 C 714.375 735.507812 728.09375 741.527344 733.640625 760.761719 C 733.679688 760.894531 733.738281 761.015625 733.785156 761.140625 C 733.625 771.085938 733.148438 780.933594 732.25 790.535156 C 721.910156 781.613281 706.464844 778.699219 690.34375 775.6875 C 654.402344 768.972656 613.671875 761.363281 595.710938 693.597656 C 594.917969 690.613281 591.847656 688.832031 588.871094 689.625 C 585.882812 690.417969 584.105469 693.480469 584.898438 696.464844 C 598.875 749.214844 627.136719 769.179688 654.964844 778.679688 C 642.320312 783.394531 630.273438 791.039062 618.535156 801.796875 C 616.257812 803.882812 616.101562 807.421875 618.191406 809.699219 C 619.292969 810.902344 620.804688 811.511719 622.316406 811.511719 C 623.667969 811.511719 625.019531 811.023438 626.09375 810.039062 C 642.277344 795.207031 658.925781 786.925781 676.988281 784.730469 C 677.179688 784.707031 677.351562 784.644531 677.535156 784.605469 C 681.21875 785.363281 684.816406 786.035156 688.289062 786.6875 C 708.207031 790.40625 724.046875 793.402344 730.359375 806.023438 C 729.914062 808.964844 729.429688 811.886719 728.871094 814.753906 C 720.457031 858.179688 700.726562 883.640625 668.550781 892.597656 C 665.574219 893.425781 663.832031 896.511719 664.660156 899.488281 C 665.347656 901.964844 667.597656 903.585938 670.046875 903.585938 C 670.542969 903.585938 671.046875 903.515625 671.550781 903.378906 C 716.246094 890.9375 734.695312 852.355469 741.496094 806.742188 C 741.664062 806.183594 741.757812 805.601562 741.746094 805.007812 C 747.082031 767.449219 744.710938 725.328125 742.671875 689.179688 L 742.191406 680.609375 Z M 742.1875 680.621094 " fill-opacity="1" fill-rule="nonzero"/><path fill="#3e5026" d="M 915.101562 696.472656 C 915.890625 693.488281 914.109375 690.425781 911.125 689.632812 C 908.136719 688.839844 905.074219 690.621094 904.285156 693.605469 C 886.328125 761.375 845.59375 768.980469 809.65625 775.695312 C 793.53125 778.707031 778.085938 781.621094 767.75 790.542969 C 766.847656 780.941406 766.371094 771.097656 766.214844 761.152344 C 766.257812 761.019531 766.320312 760.902344 766.359375 760.769531 C 771.90625 741.535156 785.625 735.511719 802.992188 727.894531 C 825.789062 717.890625 854.15625 705.445312 873.277344 658.753906 C 874.449219 655.894531 873.082031 652.628906 870.222656 651.457031 C 867.367188 650.285156 864.09375 651.652344 862.921875 654.515625 C 845.519531 697.015625 820.535156 707.976562 798.496094 717.648438 C 794.957031 719.203125 791.457031 720.738281 788.058594 722.378906 C 799.703125 703.867188 804.234375 686.820312 802.167969 669.855469 C 801.796875 666.789062 799.015625 664.609375 795.9375 664.980469 C 792.871094 665.351562 790.6875 668.140625 791.0625 671.210938 C 793.371094 690.195312 785.527344 709.878906 766.46875 732.984375 C 766.902344 718.300781 767.714844 703.738281 768.5 689.820312 L 768.980469 681.234375 C 770.449219 654.609375 782.933594 629.371094 803.234375 611.984375 C 816.921875 600.265625 832.433594 586.980469 831.886719 566.832031 C 831.804688 563.742188 829.179688 561.269531 826.144531 561.390625 C 823.054688 561.472656 820.621094 564.046875 820.703125 567.132812 C 821.078125 580.917969 811.144531 590.476562 795.957031 603.484375 C 785.019531 612.851562 776.144531 624.277344 769.683594 636.925781 C 769.910156 603.195312 776.257812 586.96875 783.386719 568.789062 C 789.222656 553.902344 795.261719 538.507812 798.589844 512.367188 C 798.980469 509.300781 796.8125 506.5 793.75 506.109375 C 790.671875 505.722656 787.882812 507.886719 787.492188 510.953125 C 784.335938 535.714844 778.558594 550.453125 772.96875 564.703125 C 763.960938 587.679688 755.449219 609.398438 759.574219 666.449219 C 758.6875 671.113281 758.074219 675.84375 757.808594 680.621094 L 757.328125 689.191406 C 755.289062 725.335938 752.917969 767.457031 758.257812 805.015625 C 758.242188 805.609375 758.339844 806.191406 758.507812 806.753906 C 765.308594 852.363281 783.757812 890.945312 828.453125 903.386719 C 828.953125 903.527344 829.460938 903.59375 829.957031 903.59375 C 832.40625 903.59375 834.652344 901.976562 835.34375 899.5 C 836.171875 896.523438 834.429688 893.4375 831.453125 892.609375 C 799.277344 883.652344 779.546875 858.1875 771.128906 814.765625 C 770.574219 811.894531 770.089844 808.976562 769.640625 806.03125 C 775.957031 793.410156 791.796875 790.414062 811.714844 786.695312 C 815.1875 786.046875 818.785156 785.375 822.46875 784.617188 C 822.652344 784.660156 822.824219 784.71875 823.015625 784.738281 C 841.078125 786.9375 857.726562 795.214844 873.90625 810.050781 C 874.980469 811.035156 876.335938 811.523438 877.6875 811.523438 C 879.199219 811.523438 880.707031 810.910156 881.8125 809.710938 C 883.898438 807.429688 883.746094 803.894531 881.46875 801.804688 C 869.730469 791.042969 857.683594 783.402344 845.035156 778.6875 C 872.867188 769.1875 901.125 749.226562 915.105469 696.476562 Z M 915.101562 696.472656 " fill-opacity="1" fill-rule="nonzero"/><path fill="#3e5026" d="M 610.492188 614.738281 L 606.539062 608.644531 L 600.445312 612.601562 C 594.042969 616.75 592.222656 625.308594 596.375 631.707031 L 600.332031 637.800781 L 606.425781 633.847656 C 612.824219 629.695312 614.644531 621.140625 610.492188 614.738281 Z M 610.492188 614.738281 " fill-opacity="1" fill-rule="nonzero"/><path fill="#3e5026" d="M 656.65625 813.335938 L 655.59375 823.246094 L 665.503906 824.308594 C 675.910156 825.425781 685.253906 817.894531 686.371094 807.488281 L 687.433594 797.578125 L 677.523438 796.515625 C 667.117188 795.398438 657.773438 802.929688 656.65625 813.335938 Z M 656.65625 813.335938 " fill-opacity="1" fill-rule="nonzero"/><path fill="#3e5026" d="M 680.453125 670.011719 L 675.332031 675.167969 C 669.957031 680.578125 669.984375 689.324219 675.398438 694.703125 L 680.554688 699.820312 L 685.671875 694.667969 C 691.050781 689.257812 691.019531 680.507812 685.605469 675.132812 Z M 680.453125 670.011719 " fill-opacity="1" fill-rule="nonzero"/><path fill="#3e5026" d="M 663.851562 643.195312 L 660.867188 636.574219 L 654.246094 639.558594 C 647.292969 642.699219 644.199219 650.878906 647.335938 657.835938 L 650.324219 664.453125 L 656.945312 661.464844 C 663.898438 658.328125 666.992188 650.144531 663.851562 643.191406 Z M 663.851562 643.195312 " fill-opacity="1" fill-rule="nonzero"/><path fill="#3e5026" d="M 628.183594 699.707031 L 622.757812 704.535156 C 617.058594 709.609375 616.550781 718.34375 621.625 724.042969 L 626.453125 729.46875 L 631.878906 724.636719 C 637.578125 719.566406 638.085938 710.832031 633.011719 705.132812 Z M 628.183594 699.707031 " fill-opacity="1" fill-rule="nonzero"/><path fill="#3e5026" d="M 568.292969 709.289062 L 561.089844 710.222656 L 562.023438 717.421875 C 563.003906 724.988281 569.933594 730.328125 577.496094 729.347656 L 584.699219 728.414062 L 583.765625 721.210938 C 582.785156 713.648438 575.859375 708.308594 568.289062 709.289062 Z M 568.292969 709.289062 " fill-opacity="1" fill-rule="nonzero"/><path fill="#3e5026" d="M 669.398438 763.332031 L 675.917969 766.535156 L 679.121094 760.015625 C 682.484375 753.164062 679.660156 744.890625 672.8125 741.527344 L 666.292969 738.324219 L 663.089844 744.84375 C 659.726562 751.695312 662.550781 759.972656 669.398438 763.332031 Z M 669.398438 763.332031 " fill-opacity="1" fill-rule="nonzero"/><path fill="#3e5026" d="M 607.636719 779.867188 L 603.433594 785.792969 L 609.359375 789.992188 C 615.585938 794.40625 624.207031 792.9375 628.621094 786.710938 L 632.820312 780.785156 L 626.894531 776.582031 C 620.667969 772.171875 612.046875 773.640625 607.636719 779.867188 Z M 607.636719 779.867188 " fill-opacity="1" fill-rule="nonzero"/><path fill="#3e5026" d="M 676.117188 541.089844 L 678.667969 547.890625 C 681.34375 555.03125 689.308594 558.652344 696.453125 555.976562 L 703.253906 553.425781 L 700.699219 546.625 C 698.023438 539.480469 690.058594 535.859375 682.917969 538.539062 Z M 676.117188 541.089844 " fill-opacity="1" fill-rule="nonzero"/><path fill="#3e5026" d="M 738.234375 517.160156 L 735.613281 510.386719 L 728.839844 513.007812 C 721.722656 515.761719 718.1875 523.765625 720.941406 530.878906 L 723.5625 537.652344 L 730.335938 535.03125 C 737.453125 532.277344 740.988281 524.277344 738.234375 517.160156 Z M 738.234375 517.160156 " fill-opacity="1" fill-rule="nonzero"/><path fill="#3e5026" d="M 889.496094 614.738281 L 893.449219 608.644531 L 899.546875 612.601562 C 905.945312 616.75 907.765625 625.308594 903.613281 631.707031 L 899.660156 637.800781 L 893.566406 633.847656 C 887.164062 629.695312 885.34375 621.140625 889.496094 614.738281 Z M 889.496094 614.738281 " fill-opacity="1" fill-rule="nonzero"/><path fill="#3e5026" d="M 843.332031 813.335938 L 844.394531 823.246094 L 834.484375 824.308594 C 824.078125 825.425781 814.734375 817.894531 813.617188 807.488281 L 812.558594 797.578125 L 822.464844 796.515625 C 832.871094 795.398438 842.21875 802.929688 843.332031 813.335938 Z M 843.332031 813.335938 " fill-opacity="1" fill-rule="nonzero"/><path fill="#3e5026" d="M 819.539062 670.011719 L 824.65625 675.167969 C 830.03125 680.578125 830.003906 689.324219 824.589844 694.703125 L 819.4375 699.820312 L 814.320312 694.667969 C 808.941406 689.257812 808.96875 680.507812 814.382812 675.132812 Z M 819.539062 670.011719 " fill-opacity="1" fill-rule="nonzero"/><path fill="#3e5026" d="M 836.136719 643.195312 L 839.125 636.574219 L 845.746094 639.558594 C 852.699219 642.699219 855.792969 650.878906 852.652344 657.835938 L 849.664062 664.453125 L 843.046875 661.464844 C 836.089844 658.328125 833 650.144531 836.136719 643.191406 Z M 836.136719 643.195312 " fill-opacity="1" fill-rule="nonzero"/><path fill="#3e5026" d="M 871.808594 699.707031 L 877.234375 704.535156 C 882.933594 709.609375 883.4375 718.34375 878.367188 724.042969 L 873.535156 729.46875 L 868.109375 724.636719 C 862.410156 719.566406 861.90625 710.832031 866.976562 705.132812 Z M 871.808594 699.707031 " fill-opacity="1" fill-rule="nonzero"/><path fill="#3e5026" d="M 931.699219 709.289062 L 938.902344 710.222656 L 937.96875 717.421875 C 936.984375 724.988281 930.058594 730.328125 922.492188 729.347656 L 915.289062 728.414062 L 916.222656 721.210938 C 917.207031 713.648438 924.132812 708.308594 931.699219 709.289062 Z M 931.699219 709.289062 " fill-opacity="1" fill-rule="nonzero"/><path fill="#3e5026" d="M 830.59375 763.332031 L 824.070312 766.535156 L 820.871094 760.015625 C 817.503906 753.164062 820.332031 744.890625 827.179688 741.527344 L 833.699219 738.324219 L 836.902344 744.84375 C 840.261719 751.695312 837.4375 759.972656 830.59375 763.332031 Z M 830.59375 763.332031 " fill-opacity="1" fill-rule="nonzero"/><path fill="#3e5026" d="M 892.355469 779.867188 L 896.554688 785.792969 L 890.628906 789.992188 C 884.402344 794.40625 875.785156 792.9375 871.371094 786.710938 L 867.171875 780.785156 L 873.097656 776.582031 C 879.320312 772.171875 887.941406 773.640625 892.355469 779.867188 Z M 892.355469 779.867188 " fill-opacity="1" fill-rule="nonzero"/><path fill="#3e5026" d="M 824.578125 534.808594 L 823.472656 541.984375 C 822.3125 549.527344 815.257812 554.699219 807.71875 553.539062 L 800.539062 552.4375 L 801.640625 545.257812 C 802.800781 537.714844 809.855469 532.542969 817.394531 533.703125 L 824.574219 534.808594 Z M 824.578125 534.808594 " fill-opacity="1" fill-rule="nonzero"/><path fill="#3e5026" d="M 749.660156 549.515625 L 752.285156 542.742188 L 759.058594 545.363281 C 766.171875 548.117188 769.707031 556.121094 766.953125 563.234375 L 764.332031 570.007812 L 757.558594 567.386719 C 750.445312 564.632812 746.90625 556.632812 749.660156 549.515625 Z M 749.660156 549.515625 " fill-opacity="1" fill-rule="nonzero"/><g clip-path="url(#496c2384d9)"><path fill="#3e5026" d="M 584.945312 930.019531 C 565.621094 909.703125 547.917969 889.152344 535.238281 867.890625 C 533.71875 865.34375 533.570312 862.210938 534.898438 859.554688 C 536.832031 855.691406 541.324219 853.855469 545.414062 855.253906 C 566.09375 862.3125 586.867188 882.15625 609.753906 907.707031 C 701.667969 932.515625 767.222656 969.945312 724.851562 1059.082031 C 683.566406 966.503906 546.265625 1029.058594 509.464844 867.050781 C 507.601562 853.960938 508.476562 818.328125 509.304688 783.058594 C 509.457031 776.578125 517.265625 773.230469 521.949219 777.71875 C 523.433594 779.140625 524.816406 781.140625 526.078125 783.816406 C 526.414062 784.527344 526.609375 785.292969 526.699219 786.070312 L 533.699219 847.277344 C 533.804688 848.1875 533.539062 849.101562 532.964844 849.816406 L 528.628906 855.210938 C 527.054688 857.167969 526.660156 859.816406 527.597656 862.148438 C 537.707031 887.292969 560.96875 913.660156 584.945312 930.015625 Z M 584.945312 930.019531 " fill-opacity="1" fill-rule="nonzero"/></g><g clip-path="url(#13dc392ca1)"><path fill="#3e5026" d="M 915.046875 930.019531 C 934.367188 909.703125 952.074219 889.152344 964.753906 867.890625 C 966.269531 865.34375 966.417969 862.210938 965.09375 859.554688 C 963.160156 855.691406 958.667969 853.855469 954.574219 855.253906 C 933.898438 862.3125 913.125 882.15625 890.234375 907.707031 C 798.324219 932.515625 732.769531 969.945312 775.140625 1059.082031 C 816.421875 966.503906 953.726562 1029.058594 990.523438 867.050781 C 992.386719 853.960938 991.511719 818.328125 990.683594 783.058594 C 990.53125 776.578125 982.726562 773.230469 978.042969 777.71875 C 976.554688 779.140625 975.175781 781.140625 973.910156 783.816406 C 973.578125 784.527344 973.378906 785.292969 973.289062 786.070312 L 966.289062 847.277344 C 966.183594 848.1875 966.449219 849.101562 967.027344 849.816406 L 971.363281 855.210938 C 972.9375 857.167969 973.328125 859.816406 972.390625 862.148438 C 962.28125 887.292969 939.019531 913.660156 915.042969 930.015625 Z M 915.046875 930.019531 " fill-opacity="1" fill-rule="nonzero"/></g></svg>